<svg xmlns="http://www.w3.org/2000/svg" width="47.805" height="33.681" viewBox="0 0 47.805 33.681">
  <g id="accident" transform="translate(0 0)">
    <g id="Group_3048" data-name="Group 3048">
      <path id="Path_2743" data-name="Path 2743" d="M29.758,969.367a1.1,1.1,0,0,0-.814.492L25.62,975.1l-3.511-1.324a1.142,1.142,0,0,0-1.459,1.12l.543,5.432a1.086,1.086,0,1,0,2.154-.221l-.373-3.683,2.714,1.018a1.119,1.119,0,0,0,1.289-.441l2.883-4.532,2.883,4.532a1.124,1.124,0,0,0,1.408.39c.81-.366,1.751-.667,2.595-.984l-.373,3.7a1.091,1.091,0,1,0,2.171.221l.543-5.432a1.143,1.143,0,0,0-1.459-1.137s-1.1.411-2.188.815c-.49.182-.946.36-1.34.509l-3.324-5.228a1.11,1.11,0,0,0-1.018-.492ZM7.507,978.058a1.087,1.087,0,0,0,.1,2.173h6.547l4.6,5.432H7.609a1.688,1.688,0,0,0-.933.238,1.558,1.558,0,0,0-.628.849,2.856,2.856,0,0,0-.068,1.086v8.147a2.772,2.772,0,0,0,.068,1.07,1.558,1.558,0,0,0,.628.849,1.716,1.716,0,0,0,.933.255h2.714a1.12,1.12,0,0,0,1.068-.917,5.14,5.14,0,0,1,2.256-3.344,6.646,6.646,0,0,1,3.185-1.164c.369-.016.739-.007,1.089,0a6.64,6.64,0,0,1,3.188,1.164,5.14,5.14,0,0,1,2.256,3.344,1.122,1.122,0,0,0,1.068.917h2.714a1.665,1.665,0,0,0,.984-.339,1.583,1.583,0,0,0,.526-.747,2.924,2.924,0,0,0,.119-1.086v-8.147a2.99,2.99,0,0,0-.119-1.1,1.583,1.583,0,0,0-.526-.747,1.646,1.646,0,0,0-.984-.323H21.584a1.1,1.1,0,0,0-.119-.17l-5.97-7.061a1.1,1.1,0,0,0-.831-.373H7.507Zm41.789,0a1.1,1.1,0,0,0-.7.339c-2.209,2.439-4.5,4.812-6.689,7.265h-.57a1.251,1.251,0,0,0-.237.017c-2.6.4-5.32.728-7.632,1.086a3.2,3.2,0,0,0-1.645.866,2.454,2.454,0,0,0-.882,1.833v5.975a1.105,1.105,0,0,0,.475.883,18.971,18.971,0,0,0,2.832,1.714,1.139,1.139,0,0,0,1.56-.8,5.089,5.089,0,0,1,2.493-3.31,7.911,7.911,0,0,1,3.619-1.2c.278-.005.552,0,.816,0a5.519,5.519,0,0,1,5.029,4.516,1.123,1.123,0,0,0,1.085.917h3.256a1.714,1.714,0,0,0,.933-.255,1.557,1.557,0,0,0,.628-.849,2.772,2.772,0,0,0,.068-1.069v-8.147a2.856,2.856,0,0,0-.068-1.086,1.558,1.558,0,0,0-.628-.849,1.689,1.689,0,0,0-.933-.238h-.017c-2.895.031-5.094.027-7.242.017l5.02-5.449h2.781a1.086,1.086,0,1,0,0-2.173H49.3ZM8.151,987.835H26.6v8.147H25.247a7.512,7.512,0,0,0-2.9-3.87,8.5,8.5,0,0,0-4.1-1.523,11.807,11.807,0,0,0-1.635-.008,8.469,8.469,0,0,0-4.2,1.531,7.5,7.5,0,0,0-2.9,3.87H8.151Zm33.173,0c3.627-.013,7.364.023,10.244,0v8.147H49.686a7.561,7.561,0,0,0-6.461-5.388,11.615,11.615,0,0,0-1.738-.008,9.64,9.64,0,0,0-4.351,1.492,7.85,7.85,0,0,0-3.036,3.344c-.263-.154-.671-.38-.984-.594v-5.364c.059-.417.409-.5.729-.56,2.36-.395,5.243-.743,7.479-1.07Zm-23.947,6.518a4.345,4.345,0,1,0,4.342,4.345A4.359,4.359,0,0,0,17.377,994.353Zm24.422,0a4.345,4.345,0,1,0,4.342,4.345A4.36,4.36,0,0,0,41.8,994.353Zm-24.422,2.173a2.173,2.173,0,1,1-2.171,2.173,2.155,2.155,0,0,1,2.171-2.173Zm24.422,0a2.173,2.173,0,1,1-2.171,2.173,2.156,2.156,0,0,1,2.171-2.173Z" transform="translate(-5.957 -969.362)" fill="#294a6e"/>
    </g>
  </g>
</svg>
