<svg xmlns="http://www.w3.org/2000/svg" xmlns:xlink="http://www.w3.org/1999/xlink" width="80" height="80" viewBox="0 0 80 80">
  <defs>
    <clipPath id="clip-path">
      <rect id="Rectangle_389" data-name="Rectangle 389" width="80" height="80" fill="#fff" stroke="#707070" stroke-width="1"/>
    </clipPath>
  </defs>
  <g id="Mask_Group_8" data-name="Mask Group 8" clip-path="url(#clip-path)">
    <g id="garage" transform="translate(2.889 -0.355)">
      <path id="Path_2720" data-name="Path 2720" d="M79.844,36.029,44.389,5.322a1.657,1.657,0,0,0-2.168,0L6.766,36.029a1.656,1.656,0,0,0,2.168,2.5L43.3,8.765,77.675,38.533a1.656,1.656,0,0,0,2.168-2.5Z" transform="translate(-6.194 -4.918)" fill="#fff"/>
      <path id="Path_2721" data-name="Path 2721" d="M66.572,35.737a.089.089,0,0,0,0-.024c-2.7-15.462-8.486-18.631-16.343-18.631H29.958c-7.859,0-13.644,3.169-16.343,18.631,0,.009,0,.015,0,.024A9.759,9.759,0,0,0,8.852,44.11v7.83a9.777,9.777,0,0,0,6.435,9.171v5.282a3.687,3.687,0,0,0,3.683,3.683h6.086a3.688,3.688,0,0,0,3.683-3.683V61.71H51.446v4.684a3.688,3.688,0,0,0,3.683,3.683h6.086A3.688,3.688,0,0,0,64.9,66.393V61.111a9.777,9.777,0,0,0,6.435-9.171V44.11A9.755,9.755,0,0,0,66.572,35.737ZM29.96,20.4H50.231c5.194,0,10.065,1.142,12.724,14.055a9.927,9.927,0,0,0-1.387-.11H18.623a9.927,9.927,0,0,0-1.387.11C19.9,21.538,24.766,20.4,29.96,20.4Zm-4.531,46a.37.37,0,0,1-.371.371H18.972a.373.373,0,0,1-.371-.371V61.71h6.83v4.684Zm36.159,0a.372.372,0,0,1-.371.371H55.131a.372.372,0,0,1-.371-.371V61.71h6.83v4.684Zm6.435-14.453A6.465,6.465,0,0,1,61.564,58.4H18.623a6.465,6.465,0,0,1-6.459-6.457V44.11a6.465,6.465,0,0,1,6.459-6.457H61.564a6.465,6.465,0,0,1,6.459,6.457Z" transform="translate(-2.983 9.778)" fill="#fff"/>
      <path id="Path_2722" data-name="Path 2722" d="M24.482,29.15H14.34a1.657,1.657,0,0,0-1.656,1.656v6.3a1.657,1.657,0,0,0,1.656,1.656H24.482a1.657,1.657,0,0,0,1.656-1.656v-6.3A1.657,1.657,0,0,0,24.482,29.15Zm-1.656,6.3H16V32.462h6.83Z" transform="translate(1.647 24.359)" fill="#fff"/>
      <path id="Path_2723" data-name="Path 2723" d="M39.021,29.15H28.879a1.657,1.657,0,0,0-1.656,1.656v6.3a1.657,1.657,0,0,0,1.656,1.656H39.021a1.657,1.657,0,0,0,1.656-1.656v-6.3A1.657,1.657,0,0,0,39.021,29.15Zm-1.656,6.3h-6.83V32.462h6.83Z" transform="translate(19.213 24.359)" fill="#fff"/>
    </g>
  </g>
</svg>
