<svg xmlns="http://www.w3.org/2000/svg" width="22.557" height="20.408" viewBox="0 0 22.557 20.408">
  <g id="noun_cart_1589725" transform="translate(-1 -3)">
    <g id="Group_2479" data-name="Group 2479" transform="translate(1 3)">
      <g id="Group_2478" data-name="Group 2478">
        <path id="Path_1781" data-name="Path 1781" d="M23.487,7.674,21.07,14.118a1.074,1.074,0,0,1-1.006.7H9.135L9.557,16.2a1.068,1.068,0,0,0,1.027.761h9.749v2.148H10.585A3.2,3.2,0,0,1,7.5,16.829L4.159,5.856a1.066,1.066,0,0,0-1.011-.708H1V3H3.149A3.219,3.219,0,0,1,6.206,5.2l.31,1.019H22.482A1.074,1.074,0,0,1,23.487,7.674ZM9.056,20.186A1.611,1.611,0,1,0,10.667,21.8,1.611,1.611,0,0,0,9.056,20.186Zm10.741,0A1.611,1.611,0,1,0,21.408,21.8,1.611,1.611,0,0,0,19.8,20.186Z" transform="translate(-1 -3)" fill="#f9f9f9"/>
      </g>
    </g>
  </g>
</svg>
