<svg xmlns="http://www.w3.org/2000/svg" width="21.453" height="22.5" viewBox="0 0 21.453 22.5">
  <g id="noun_cog_1344190" opacity="0.977">
    <g id="Group_2273" data-name="Group 2273" transform="translate(0 0)">
      <path id="Path_1649" data-name="Path 1649" d="M17.634,959.362l-.507,3.287a8.319,8.319,0,0,0-2.886,1.651l-3.09-1.251L9,966.639l2.575,2.118a8.208,8.208,0,0,0,0,3.712L9,974.586l2.15,3.589,3.09-1.251a8.317,8.317,0,0,0,2.886,1.652l.507,3.287H21.82l.507-3.287a8.318,8.318,0,0,0,2.886-1.652l3.09,1.251,2.15-3.589-2.575-2.118a8.208,8.208,0,0,0,0-3.712l2.575-2.118-2.15-3.589-3.09,1.251a8.317,8.317,0,0,0-2.886-1.652l-.507-3.287Zm2.093,6.279a4.971,4.971,0,1,1-4.971,4.971A4.971,4.971,0,0,1,19.727,965.641Z" transform="translate(-9 -959.362)" fill="#fff"/>
    </g>
  </g>
</svg>
