<svg xmlns="http://www.w3.org/2000/svg" width="20" height="21.055" viewBox="0 0 20 21.055">
  <g id="noun_database_887255" transform="translate(0 -0.056)">
    <g id="Group_2480" data-name="Group 2480">
      <path id="Path_1782" data-name="Path 1782" d="M0,17.436C0,19.182,4.42,20.6,9.853,20.6S19.7,19.184,19.7,17.441v-.008c0-.118,0-2.521,0-2.521-2.025,1.484-5.947,2.173-9.851,2.173S2.024,16.4,0,14.91C0,14.91,0,17.317,0,17.436Z" transform="translate(0 -4.418)" fill="#f9f9f9"/>
      <path id="Path_1783" data-name="Path 1783" d="M19.7,21.911c-2.025,1.484-5.947,2.173-9.851,2.173S2.024,23.4,0,21.91v2.878H0C.545,26.371,4.782,27.6,9.853,27.6s9.306-1.231,9.852-2.815h0Z" transform="translate(0 -6.492)" fill="#f9f9f9"/>
      <path id="Path_1784" data-name="Path 1784" d="M0,10.436C0,12.182,4.42,13.6,9.853,13.6S19.7,12.184,19.7,10.441v-.008c0-.118,0-2.521,0-2.521-2.025,1.484-5.947,2.173-9.851,2.173S2.024,9.4,0,7.91C0,7.91,0,10.317,0,10.436Z" transform="translate(0 -2.344)" fill="#f9f9f9"/>
      <ellipse id="Ellipse_54" data-name="Ellipse 54" cx="10" cy="3.5" rx="10" ry="3.5" transform="translate(0 0.056)" fill="#f9f9f9"/>
    </g>
  </g>
</svg>
