<svg id="Group_2276" data-name="Group 2276" xmlns="http://www.w3.org/2000/svg" width="18" height="18" viewBox="0 0 18 18">
  <path id="Path_1726" data-name="Path 1726" d="M19,962.362a9,9,0,1,0,9,9A8.993,8.993,0,0,0,19,962.362Zm-3.431,5.175h.049a.45.45,0,0,1,.323.134L19,970.722l3.052-3.052a.452.452,0,1,1,.64.64l-3.059,3.059,3.059,3.052a.452.452,0,1,1-.64.64L19,972l-3.059,3.059a.452.452,0,0,1-.64-.64l3.052-3.052L15.3,968.31a.45.45,0,0,1,.267-.773Z" transform="translate(-10 -962.362)" fill="#df3427" fill-rule="evenodd"/>
</svg>
