<svg xmlns="http://www.w3.org/2000/svg" xmlns:xlink="http://www.w3.org/1999/xlink" width="80" height="80" viewBox="0 0 80 80">
  <defs>
    <clipPath id="clip-path">
      <rect id="Rectangle_392" data-name="Rectangle 392" width="80" height="80" transform="translate(1665 5429)" fill="#fff" stroke="#707070" stroke-width="1"/>
    </clipPath>
  </defs>
  <g id="dirver" transform="translate(-1665 -5429)" clip-path="url(#clip-path)">
    <g id="driver" transform="translate(1665.5 5428.5)">
      <g id="Group_3038" data-name="Group 3038" transform="translate(4.5 0.5)">
        <path id="Path_2726" data-name="Path 2726" d="M63.081,47.21,50.565,42.694h0a7,7,0,0,1-3.355-2.968c5.419-4.774,8.9-13.548,8.9-19.871V15.468c5.161-2.581,5.161-4.9,5.161-5.935C61.274,3.726,49.919.5,39.339.5S17.4,3.726,17.4,9.532c0,1.032.516,3.871,5.161,5.935v4.387c0,6.452,3.484,15.226,8.9,19.871a7,7,0,0,1-3.355,2.968h0L15.6,47.21A16.99,16.99,0,0,0,4.5,62.952V80.5H74.177V62.952A16.99,16.99,0,0,0,63.081,47.21ZM25.532,16.629a48.134,48.134,0,0,0,13.806,1.935,44.016,44.016,0,0,0,13.806-1.935c0,.258.129.387.129.645-1.29,4.774-6.71,5.161-7.484,5.161h-12.9c-.645,0-6.065-.516-7.484-5.161C25.4,17.016,25.532,16.887,25.532,16.629Zm-5.548-7.1c0-3.1,8.258-6.452,19.355-6.452S58.694,6.435,58.694,9.532c0,.774-1.806,6.452-19.355,6.452S19.984,10.177,19.984,9.532Zm5.29,12.387c1.677,2.194,6.581,3.1,7.613,3.1h12.9c1.032,0,5.548-.774,7.613-3.1C52.371,29.79,46.435,40.5,39.339,40.5S26.306,29.919,25.274,21.919Zm8.258,19.355a10.235,10.235,0,0,0,11.613,0,9.539,9.539,0,0,0,4.387,3.742L43.855,58.177,41.79,45.661H37.016L34.823,58.177,29.145,45.145A9.816,9.816,0,0,0,33.532,41.274Zm8.387,21.161-2.581,5.806-2.581-5.806,2.323-14.194h.387ZM71.6,77.919H61.274V72.758H58.694v5.161H19.984V72.758H17.4v5.161H7.081V62.952A14.329,14.329,0,0,1,16.5,49.532l10.194-3.613L39.339,74.694,51.984,46.048l10.194,3.613A14.2,14.2,0,0,1,71.6,63.081Z" transform="translate(-4.5 -0.5)" fill="#fff"/>
        <rect id="Rectangle_382" data-name="Rectangle 382" width="9.4" height="2" transform="translate(53.278 48.819) rotate(19.694)" fill="#fff"/>
        <rect id="Rectangle_383" data-name="Rectangle 383" width="2" height="9.4" transform="translate(8.29 53.76) rotate(-109.689)" fill="#fff"/>
        <rect id="Rectangle_384" data-name="Rectangle 384" width="10" height="2" transform="translate(53.677 59.8)" fill="#fff"/>
        <rect id="Rectangle_385" data-name="Rectangle 385" width="2" height="2" transform="translate(49.457 68)" fill="#fff"/>
        <rect id="Rectangle_386" data-name="Rectangle 386" width="2" height="2" transform="translate(54.663 68)" fill="#fff"/>
        <rect id="Rectangle_387" data-name="Rectangle 387" width="2" height="2" transform="translate(61.677 68)" fill="#fff"/>
      </g>
    </g>
  </g>
</svg>
