<svg xmlns="http://www.w3.org/2000/svg" xmlns:xlink="http://www.w3.org/1999/xlink" width="80" height="80" viewBox="0 0 80 80">
  <defs>
    <clipPath id="clip-path">
      <rect id="Rectangle_390" data-name="Rectangle 390" width="80" height="80" transform="translate(1565 5238)" fill="#fff" stroke="#707070" stroke-width="1"/>
    </clipPath>
  </defs>
  <g id="Dispatcher" transform="translate(-1565 -5238)" clip-path="url(#clip-path)">
    <g id="Dispatcher-2" data-name="Dispatcher" transform="translate(1563 5230.998)">
      <g id="Group_3037" data-name="Group 3037" transform="translate(2 10.002)">
        <path id="Path_2724" data-name="Path 2724" d="M33.33,52a4.33,4.33,0,1,0,4.33,4.33A4.33,4.33,0,0,0,33.33,52Zm0,5.773a1.443,1.443,0,1,1,1.443-1.443A1.443,1.443,0,0,1,33.33,57.773Z" transform="translate(9.157 7.219)" fill="#fff"/>
        <path id="Path_2725" data-name="Path 2725" d="M16.518,16.472l18.059,33.4V73.739A9.915,9.915,0,0,0,54.1,76.161L82,60.821l-1.416-2.493L54.408,72.79a10.85,10.85,0,0,0-.467-2.181l22.45-12.635a1.416,1.416,0,0,0,.538-1.926L64.181,33.384,51.433,10.722a1.416,1.416,0,0,0-1.926-.538l-7.918,4.448h-.127l-1.856,1.076L26.858,22.889a1.416,1.416,0,0,0-.538,1.926L39.068,47.478l9.674,17.309a9.532,9.532,0,0,0-3.385-.963L19,15.127a7.082,7.082,0,0,0-6.2-3.711H2v2.833H12.793A4.249,4.249,0,0,1,16.518,16.472Zm20.892,38.64,4.844,8.98a9.83,9.83,0,0,0-4.844,2.72Zm7.082,25.708a7.082,7.082,0,1,1,7.082-7.082A7.082,7.082,0,0,1,44.493,80.821ZM56.476,44.178,52.807,46.3l-2.125-3.725,3.059-1.771.623-.354ZM43.728,21.515l-3.669,2.125-2.125-3.725,3.059-1.771.623-.354Zm-8.286-.184L38.275,26.3a1.416,1.416,0,0,0,1.941.524l6.133-3.541a1.416,1.416,0,0,0,.552-1.955l-2.833-4.873,5.538-3.116,11.331,20.2-6.686,3.754h-.127L52.269,38.37l-1.416.807-10.1,5.666-11.331-20.2ZM48.19,43.994l2.833,4.972a1.416,1.416,0,0,0,1.941.524L59.1,45.948a1.416,1.416,0,0,0,.552-1.955l-2.833-4.873L62.354,36,73.686,56.2l-20.2,11.331-11.331-20.2Z" transform="translate(-2 -10.002)" fill="#fff"/>
      </g>
    </g>
  </g>
</svg>
