<svg id="surface1" xmlns="http://www.w3.org/2000/svg" width="350" height="315" viewBox="0 0 350 315">
  <path id="Path_1" data-name="Path 1" d="M320.833,0H29.167A29.2,29.2,0,0,0,0,29.167v192.5a29.2,29.2,0,0,0,29.167,29.167H138.833l-9.548,52.5H116.667V315H233.333V303.333H220.7l-9.538-52.5H320.833A29.2,29.2,0,0,0,350,221.667V29.167A29.2,29.2,0,0,0,320.833,0ZM11.667,29.167a17.5,17.5,0,0,1,17.5-17.5H320.833a17.5,17.5,0,0,1,17.5,17.5V198.333H11.667ZM208.833,303.333H141.167l9.543-52.5h48.6Zm129.5-81.667a17.5,17.5,0,0,1-17.5,17.5H29.167a17.5,17.5,0,0,1-17.5-17.5V210H338.333Zm0,0" fill="#1abb95"/>
  <path id="Path_2" data-name="Path 2" d="M292.635,80.252a12.835,12.835,0,0,0-21.365,0L202.69,183.133a12.832,12.832,0,0,0,10.675,19.95H350.54a12.832,12.832,0,0,0,10.675-19.95Zm58.933,110.582a1.086,1.086,0,0,1-1.028.611H213.365a1.164,1.164,0,0,1-.968-1.814l68.58-102.9a1.166,1.166,0,0,1,1.951,0L351.508,189.6A1.092,1.092,0,0,1,351.568,190.833Zm0,0" transform="translate(-106.952 -39.75)" fill="#1abb95"/>
  <path id="Path_3" data-name="Path 3" d="M362.5,162.5h11.667v40.833H362.5Zm0,0" transform="translate(-193.333 -86.667)" fill="#1abb95"/>
  <path id="Path_4" data-name="Path 4" d="M362.5,275h11.667v11.667H362.5Zm0,0" transform="translate(-193.333 -146.667)" fill="#1abb95"/>
</svg>
