<svg xmlns="http://www.w3.org/2000/svg" width="13.1" height="16.989" viewBox="0 0 13.1 16.989">
  <g id="file" transform="translate(-25.5 -19.242)">
    <path id="Path_1725" data-name="Path 1725" d="M31.458,16.292A.989.989,0,0,0,30.729,16H24a1,1,0,0,0-1,1v15a1,1,0,0,0,1,1H35.1a1,1,0,0,0,1-1V21.4a.973.973,0,0,0-.292-.7Zm3.184,4.569H31.288a.024.024,0,0,1-.024-.024V17.483Zm.51,11.156a.024.024,0,0,1-.024.024H24a.024.024,0,0,1-.024-.024v-15A.024.024,0,0,1,24,17h6.295v3.864a1,1,0,0,0,1,1h3.864V32.017Z" transform="translate(2.5 3.242)" fill="#1e1d1d"/>
  </g>
</svg>
