<svg xmlns="http://www.w3.org/2000/svg" xmlns:xlink="http://www.w3.org/1999/xlink" width="42" height="42" viewBox="0 0 42 42">
  <defs>
    <clipPath id="clip-path">
      <rect id="Rectangle_395" data-name="Rectangle 395" width="42" height="42" fill="#294a6e" stroke="#707070" stroke-width="1"/>
    </clipPath>
  </defs>
  <g id="Mask_Group_10" data-name="Mask Group 10" clip-path="url(#clip-path)">
    <g id="gas2" transform="translate(1.4 1.047)">
      <path id="Path_2739" data-name="Path 2739" d="M30.835,9.326H17.446A6.446,6.446,0,0,0,11,15.772v32.9a.992.992,0,0,0,.992.992h24.3a.992.992,0,0,0,.992-.992V22.055h1.612a1.983,1.983,0,0,1,1.983,1.983V37.987a4.4,4.4,0,0,0,8.8,0V16.6a.992.992,0,0,0-.337-.744l-8-7.007-1.3,1.488,7.656,6.714V37.987a2.42,2.42,0,0,1-4.835,0V24.038a3.967,3.967,0,0,0-3.967-3.967H37.281v-4.3A6.446,6.446,0,0,0,30.835,9.326ZM35.3,47.671H12.983v-31.9a4.463,4.463,0,0,1,4.463-4.463H30.835A4.463,4.463,0,0,1,35.3,15.772Z" transform="translate(-11 -8.85)" fill="#294a6e"/>
      <path id="Path_2740" data-name="Path 2740" d="M35.381,20.82h-12.3A1.983,1.983,0,0,0,21.1,22.8v9.58a.992.992,0,0,0,.992.992H36.373a.992.992,0,0,0,.992-.992V22.8A1.983,1.983,0,0,0,35.381,20.82Zm0,10.572h-12.3V22.8h12.3Z" transform="translate(-16.092 -14.884)" fill="#294a6e"/>
      <path id="Path_2741" data-name="Path 2741" d="M159.52,234.988l.238-.988-1,.2a5.312,5.312,0,0,0-3.137,1.756,5.872,5.872,0,0,0-1.164,2.373l-.574-.75-.408,1.115a5.019,5.019,0,0,0,.4,4.717,4.777,4.777,0,0,0,3.807,1.995h.006l.647-.057a3.934,3.934,0,0,0,2.846-2.115c.4-.83.808-2.545-.928-4.719A4.563,4.563,0,0,1,159.52,234.988Zm.49,7.677a2.651,2.651,0,0,1-2.325,1.435,3.318,3.318,0,0,1-3.207-4.188c.022.012.041.024.057.035l.886.639.141-1.082a5.184,5.184,0,0,1,1.06-2.712,3.664,3.664,0,0,1,1.51-1.064,5.451,5.451,0,0,0,1.106,3.6C160.2,240.523,160.469,241.71,160.01,242.665Z" transform="translate(-144.008 -211.41)" fill="#294a6e"/>
    </g>
  </g>
</svg>
