<svg xmlns="http://www.w3.org/2000/svg" width="22.249" height="19.007" viewBox="0 0 22.249 19.007">
  <g id="noun_groups_829918" opacity="0.977">
    <g id="Group_2274" data-name="Group 2274" transform="translate(0)">
      <path id="Path_1650" data-name="Path 1650" d="M102.45,134.152c-.128-.174-.247-.321-.353-.481a1.694,1.694,0,0,1-.353-.925.355.355,0,0,0-.105-.188,3.428,3.428,0,0,1-.852-1.864.852.852,0,0,1,.27-.829c.046-.037.055-.137.06-.206,0-.449.023-.9,0-1.351a2.493,2.493,0,0,1,1.983-2.565,4.827,4.827,0,0,1,2.245-.046,2.448,2.448,0,0,1,2.034,2.212,15.473,15.473,0,0,1,.05,1.663.338.338,0,0,0,.128.3.842.842,0,0,1,.229.518,2.342,2.342,0,0,1-.481,1.544,4.507,4.507,0,0,0-.641,1.264,4.711,4.711,0,0,1-.522.939c.169.092.371.22.582.316.792.353,1.589.7,2.387,1.044a4.144,4.144,0,0,1,2.588,4.1.621.621,0,0,1-.44.673,11.272,11.272,0,0,1-1.677.435,42.535,42.535,0,0,1-8.222.321,14.442,14.442,0,0,1-3.719-.577c-.041-.014-.087-.027-.128-.046-.641-.243-.77-.421-.7-1.095a5.43,5.43,0,0,1,1.081-2.73,2.986,2.986,0,0,1,1.145-.893c.866-.394,1.745-.765,2.616-1.15C101.924,134.417,102.175,134.284,102.45,134.152Z" transform="translate(-93.137 -122.083)" fill="#fff"/>
      <path id="Path_1651" data-name="Path 1651" d="M279.279,57.809c.192.1.417.224.65.33.815.362,1.635.71,2.446,1.081a4.1,4.1,0,0,1,2.423,3.632c.009.092.014.183.023.275.037.518-.124.751-.641.852-.486.1-.976.156-1.47.224-.371.05-.742.082-1.113.133-.156.023-.257,0-.316-.165a3.092,3.092,0,0,0-1.777-1.832c-.728-.33-1.457-.669-2.18-1.008-.2-.092-.385-.211-.614-.339.3-.531.559-1.054.87-1.548a2.834,2.834,0,0,0,.385-2.368,13.817,13.817,0,0,1-.339-2.144,3.2,3.2,0,0,0-2.936-2.858c-.1-.009-.2-.027-.3-.046a3.474,3.474,0,0,1,0-.655,2.608,2.608,0,0,1,2.272-2.08,5.263,5.263,0,0,1,1.777.06,2.5,2.5,0,0,1,2.084,2.377c.046.513.018,1.035.014,1.553,0,.105,0,.174.115.238a.614.614,0,0,1,.243.563,2.618,2.618,0,0,1-.541,1.622,3.79,3.79,0,0,0-.54,1.09A6.845,6.845,0,0,1,279.279,57.809Z" transform="translate(-262.578 -49.24)" fill="#fff"/>
      <path id="Path_1652" data-name="Path 1652" d="M22.488,57.658a2.764,2.764,0,0,1-.76-1.5.738.738,0,0,0-.16-.247,3.312,3.312,0,0,1-.751-1.617c-.041-.344-.078-.7.289-.944.055-.037.046-.192.037-.293a5.931,5.931,0,0,1,.078-1.777,2.524,2.524,0,0,1,2.359-2.107,4.39,4.39,0,0,1,2.226.224,2.5,2.5,0,0,1,1.489,2.492c-.073.014-.151.032-.229.05a10.213,10.213,0,0,0-1.054.289,2.906,2.906,0,0,0-1.928,2.409,4.931,4.931,0,0,0-.105,1,9.4,9.4,0,0,1-.325,1.525,3.248,3.248,0,0,0,.426,2.13c.311.5.582,1.031.889,1.576-.257.137-.472.27-.7.376q-1,.474-2.015.925a3.23,3.23,0,0,0-1.873,1.9.2.2,0,0,1-.252.156c-.815-.11-1.635-.211-2.451-.316a2.333,2.333,0,0,1-.353-.087.55.55,0,0,1-.44-.55A4.107,4.107,0,0,1,18.952,59.3c.847-.472,1.773-.811,2.661-1.214C21.893,57.965,22.172,57.818,22.488,57.658Z" transform="translate(-16.885 -49.125)" fill="#fff"/>
    </g>
  </g>
</svg>
