<svg id="mainte" xmlns="http://www.w3.org/2000/svg" xmlns:xlink="http://www.w3.org/1999/xlink" width="42" height="42" viewBox="0 0 42 42">
  <defs>
    <clipPath id="clip-path">
      <rect id="Rectangle_394" data-name="Rectangle 394" width="42" height="42" fill="#294a6e" stroke="#707070" stroke-width="1"/>
    </clipPath>
  </defs>
  <g id="Mask_Group_9" data-name="Mask Group 9" clip-path="url(#clip-path)">
    <g id="tool" transform="translate(0.292 0.157)">
      <g id="Group_3045" data-name="Group 3045">
        <path id="Path_2742" data-name="Path 2742" d="M43.038,33.533l-9.866-6.9.171-.171a10.8,10.8,0,0,0,12.6-10.871,1.6,1.6,0,0,0-2.392-1.352L39.113,16.8l-2.83-1.651-.015-3.276L40.711,9.31a1.6,1.6,0,0,0,.026-2.747,10.8,10.8,0,0,0-11.073-.07A10.935,10.935,0,0,0,24.507,17.6l-1.228,1.228-6.9-6.9V9.551a1.138,1.138,0,0,0-.552-.976L10.136,5.162a1.138,1.138,0,0,0-1.39.171L5.333,8.746a1.137,1.137,0,0,0-.171,1.39l3.413,5.688a1.138,1.138,0,0,0,.976.552h2.373l6.9,6.9L6.832,35.274a6.257,6.257,0,0,0,8.849,8.849l10.95-10.95,6.9,9.866a6.826,6.826,0,1,0,9.5-9.505ZM26.544,18.78a1.137,1.137,0,0,0,.305-1.055,8.634,8.634,0,0,1,3.969-9.27,8.522,8.522,0,0,1,7.675-.491l-3.934,2.271a1.138,1.138,0,0,0-.569.99l.02,4.586a1.138,1.138,0,0,0,.564.977L38.537,19.1a1.139,1.139,0,0,0,1.142,0l3.934-2.271a8.516,8.516,0,0,1-10.336,7.3,6.5,6.5,0,0,1-1.4-.682l-2.183-2.183a1.137,1.137,0,0,0-1.609,0L26.9,22.447l-2.011-2.011ZM13.2,14.434a1.138,1.138,0,0,0-.8-.333h-2.2L7.57,9.727,9.727,7.57,14.1,10.195v2.2a1.138,1.138,0,0,0,.333.8L25.811,24.576l-1.235,1.235Zm.874,28.079a3.982,3.982,0,0,1-5.631-5.631L20.435,24.888,22.447,26.9,21.26,28.086a1.137,1.137,0,0,0,0,1.609l2.275,2.275a1.133,1.133,0,0,0,.752.328ZM39.129,43.68A4.56,4.56,0,0,1,35.4,41.734l-7.85-11.22a1.138,1.138,0,0,0-.932-.486h-1.8l-1.138-1.138,5.217-5.217,1.138,1.138v1.8a1.136,1.136,0,0,0,.486.932l11.22,7.85a4.551,4.551,0,0,1-2.6,8.283Z" transform="translate(-5 -5)" fill="#294a6e"/>
      </g>
    </g>
  </g>
</svg>
