<svg id="noun_Photo_3362987" xmlns="http://www.w3.org/2000/svg" width="22" height="22" viewBox="0 0 22 22">
  <g id="Group_2477" data-name="Group 2477">
    <path id="Path_1779" data-name="Path 1779" d="M2.258,0H19.806A2.231,2.231,0,0,1,22,2.258V19.806A2.175,2.175,0,0,1,19.806,22H2.258A2.231,2.231,0,0,1,0,19.806V2.258A2.286,2.286,0,0,1,2.258,0ZM13.613,9.677l7.161,9.871V2.258a.95.95,0,0,0-.968-.968H2.258a.914.914,0,0,0-.968.968V19.806a.582.582,0,0,0,.065.323l3.548-4.9a.542.542,0,0,1,.9,0l1.484,2L12.71,9.677A.623.623,0,0,1,13.613,9.677Z" fill="#f9f9f9"/>
    <circle id="Ellipse_53" data-name="Ellipse 53" cx="3" cy="3" r="3" transform="translate(3.804 5.716)" fill="#f9f9f9"/>
  </g>
</svg>
