<svg xmlns="http://www.w3.org/2000/svg" width="22.528" height="22.5" viewBox="0 0 22.528 22.5">
  <g id="noun_Pie_Chart_1245749" data-name="noun_Pie Chart_1245749" opacity="0.977">
    <g id="Group_2278" data-name="Group 2278" transform="translate(0 0)">
      <path id="Path_1668" data-name="Path 1668" d="M58.054,34.617l6.931-6.93q-.18-.291-.377-.571l-7.1,7.1Z" transform="translate(-44.125 -22.298)" fill="#fff"/>
      <path id="Path_1669" data-name="Path 1669" d="M53.9,30.894l7.263-7.264c-.141-.174-.289-.342-.44-.508l-7.37,7.371Z" transform="translate(-41.143 -19.431)" fill="#fff"/>
      <path id="Path_1670" data-name="Path 1670" d="M57.117,16.52,51.4,22.241v.949l6.281-6.281Q57.4,16.706,57.117,16.52Z" transform="translate(-39.734 -14.687)" fill="#fff"/>
      <path id="Path_1671" data-name="Path 1671" d="M55.813,13.944,51.4,18.36v.948l5.045-5.044C56.236,14.151,56.025,14.045,55.813,13.944Z" transform="translate(-39.733 -12.838)" fill="#fff"/>
      <path id="Path_1672" data-name="Path 1672" d="M54.352,11.921,51.4,14.877v.948l3.66-3.66C54.826,12.075,54.59,12,54.352,11.921Z" transform="translate(-39.732 -11.386)" fill="#fff"/>
      <path id="Path_1673" data-name="Path 1673" d="M52.7,10.575l-1.3,1.3v.948l2.1-2.1C53.237,10.664,52.97,10.616,52.7,10.575Z" transform="translate(-39.731 -10.42)" fill="#fff"/>
      <path id="Path_1674" data-name="Path 1674" d="M58.284,19.585,51.4,26.473v.949l7.385-7.385C58.62,19.881,58.454,19.73,58.284,19.585Z" transform="translate(-39.735 -16.886)" fill="#fff"/>
      <path id="Path_1675" data-name="Path 1675" d="M51.4,10.144v.341l.326-.326C51.614,10.152,51.5,10.148,51.4,10.144Z" transform="translate(-39.729 -10.111)" fill="#fff"/>
      <path id="Path_1676" data-name="Path 1676" d="M62.214,38.685l6.457-6.457c-.1-.217-.2-.431-.308-.64l-6.7,6.7Z" transform="translate(-47.111 -25.509)" fill="#fff"/>
      <path id="Path_1677" data-name="Path 1677" d="M70.538,48.043l4.988-4.988c-.034-.276-.075-.55-.128-.82L69.99,47.643Z" transform="translate(-53.084 -33.154)" fill="#fff"/>
      <path id="Path_1678" data-name="Path 1678" d="M66.377,43.135,72.2,37.314c-.068-.243-.143-.484-.228-.721l-6.142,6.142Z" transform="translate(-50.098 -29.103)" fill="#fff"/>
      <path id="Path_1679" data-name="Path 1679" d="M78.862,59.921l2.312-2.312a10.948,10.948,0,0,0,.267-1.215L78.315,59.52Z" transform="translate(-59.059 -43.318)" fill="#fff"/>
      <path id="Path_1680" data-name="Path 1680" d="M78.589,48.708,74.15,53.147l.548.4,3.883-3.883c.01-.2.017-.392.017-.591C78.6,48.951,78.593,48.829,78.589,48.708Z" transform="translate(-56.07 -37.801)" fill="#fff"/>
      <path id="Path_1681" data-name="Path 1681" d="M82.81,68.089a11.244,11.244,0,0,0,.711-1.294l-1.048,1.048Z" transform="translate(-62.043 -50.784)" fill="#fff"/>
      <path id="Path_1682" data-name="Path 1682" d="M20.866,21.161V10.027a11.254,11.254,0,1,0,9.411,18.008h0l-9.406-6.873Z" transform="translate(-10.034 -10.027)" fill="#fff"/>
    </g>
  </g>
</svg>
