<svg xmlns="http://www.w3.org/2000/svg" width="23.449" height="22.202" viewBox="0 0 23.449 22.202">
  <g id="noun_Structure_486700" transform="translate(-5 -7.394)">
    <path id="Path_1780" data-name="Path 1780" d="M27.451,23.609h-1.5V20.241a1,1,0,0,0-1-1H17.224V15.876h2.744a1,1,0,0,0,1-1V8.392a1,1,0,0,0-1-1H13.482a1,1,0,0,0-1,1v6.486a1,1,0,0,0,1,1h2.744v3.368H8.492a1,1,0,0,0-1,1v3.368H6a1,1,0,0,0-1,1V28.6a1,1,0,0,0,1,1H9.989a1,1,0,0,0,1-1V24.606a1,1,0,0,0-1-1h-1.5V20.241h7.733v3.368h-1.5a1,1,0,0,0-1,1V28.6a1,1,0,0,0,1,1H18.72a1,1,0,0,0,1-1V24.606a1,1,0,0,0-1-1h-1.5V20.241h7.733v3.368h-1.5a1,1,0,0,0-1,1V28.6a1,1,0,0,0,1,1h3.991a1,1,0,0,0,1-1V24.606A1,1,0,0,0,27.451,23.609Z" transform="translate(0 0)" fill="#f9f9f9"/>
  </g>
</svg>
