<?xml version="1.0" standalone="no"?>
<!DOCTYPE svg PUBLIC "-//W3C//DTD SVG 1.1//EN" "http://www.w3.org/Graphics/SVG/1.1/DTD/svg11.dtd" >
<svg xmlns="http://www.w3.org/2000/svg">
<metadata>Generated by IcoMoon</metadata>
<defs>
<font id="Systemize-Logistics" horiz-adv-x="1024">
<font-face units-per-em="1024" ascent="960" descent="-64" />
<missing-glyph horiz-adv-x="1024" />
<glyph unicode="&#x20;" horiz-adv-x="512" d="" />
<glyph unicode="&#xe800;" glyph-name="icon-angle-down-solid" d="M135 615l-46-46 400-400 23-22 23 22 400 400-46 46-377-377z" />
<glyph unicode="&#xe801;" glyph-name="icon-angle-left-solid" d="M609 823l-352-352-22-23 22-23 352-352 46 46-329 329 329 329z" />
<glyph unicode="&#xe802;" glyph-name="icon-angle-right-solid" d="M415 823l-46-46 329-329-329-329 46-46 352 352 22 23-22 23z" />
<glyph unicode="&#xe803;" glyph-name="icon-angle-up-solid" d="M512 749l-23-22-400-400 46-46 377 377 377-377 46 46-400 400z" />
<glyph unicode="&#xe804;" glyph-name="icon-user" d="M512 800c-123.375 0-224-100.625-224-224 0-77.125 39.375-145.625 99-186-114.125-49-195-162.25-195-294h64c0 141.75 114.25 256 256 256s256-114.25 256-256h64c0 131.75-80.875 245-195 294 59.625 40.375 99 108.875 99 186 0 123.375-100.625 224-224 224zM512 736c88.75 0 160-71.25 160-160s-71.25-160-160-160c-88.75 0-160 71.25-160 160s71.25 160 160 160z" />
<glyph unicode="&#xe805;" glyph-name="icon-search-solid" d="M608 864c-176.375 0-320-143.625-320-320 0-76.625 26.875-146.875 72-202l-255-255 46-46 255 255c55.125-45.125 125.375-72 202-72 176.375 0 320 143.625 320 320s-143.625 320-320 320zM608 800c141.75 0 256-114.25 256-256s-114.25-256-256-256c-141.75 0-256 114.25-256 256s114.25 256 256 256z" />
<glyph unicode="&#xe806;" glyph-name="icon-plus-solid" d="M480 800v-320h-320v-64h320v-320h64v320h320v64h-320v320z" />
<glyph unicode="&#xe807;" glyph-name="icon-eye-solid" d="M512 704c-266.75 0-472-235-472-235l-19-21 19-21c0 0 187.125-213.375 436-233 11.875-1.5 23.75-2 36-2s24.125 0.5 36 2c248.875 19.625 436 233 436 233l19 21-19 21c0 0-205.25 235-472 235zM512 640c70.5 0 135.5-19.25 192-45 20.375-33.75 32-72.625 32-115 0-115.625-86.75-210.625-199-223-0.625-0.125-1.375 0.125-2 0-7.625-0.375-15.25-1-23-1-8.5 0-16.75 0.5-25 1-112.25 12.375-199 107.375-199 223 0 41.75 11.25 80.625 31 114h-1c57 26.25 122.75 46 194 46zM512 576c-53 0-96-43-96-96s43-96 96-96c53 0 96 43 96 96s-43 96-96 96zM232 546c-5-21.5-8-43.125-8-66 0-56.125 16-108.625 44-153-80.625 46.625-136.625 102.25-155 121 15.375 15.75 58.25 57.5 119 98zM792 546c60.75-40.5 103.625-82.25 119-98-18.375-18.75-74.375-74.375-155-121 28 44.375 44 96.875 44 153 0 22.875-3 44.75-8 66z" />
<glyph unicode="&#xe808;" glyph-name="icon-pen-solid" d="M765 833c-33.5 0-67-13-93-39l-506-506-2-10-35-176-10-47 47 10 186 37 506 506c52 52 52 134 0 186-26 26-59.5 39-93 39zM765 772c16.125 0 32.375-7.375 48-23 31.125-31.125 31.125-64.875 0-96l-23-22-95 95 22 23c15.625 15.625 31.875 23 48 23zM650 681l95-95-387-387c-21 41-54 74-95 95zM222 242c38.375-15.5 68.5-45.625 84-84l-105-21z" />
<glyph unicode="&#xe809;" glyph-name="icon-trash-solid" d="M448 832c-16.75 0-33.875-5.875-46-18s-18-29.25-18-46v-32h-224v-64h35l61-579 3-29h506l3 29 61 579h35v64h-224v32c0 16.75-5.875 33.875-18 46s-29.25 18-46 18zM448 768h128v-32h-128zM260 672h504l-57-544h-390zM384 576v-352h64v352zM480 576v-352h64v352zM576 576v-352h64v352z" />
<glyph unicode="&#xe811;" glyph-name="icon-dot" d="M1024 448c0-282.77-229.23-512-512-512s-512 229.23-512 512c0 282.77 229.23 512 512 512s512-229.23 512-512z" />
<glyph unicode="&#xe812;" glyph-name="icon-file-pdf" d="M192 864v-832h640v832zM256 800h512v-704h-512zM493 629c-9.75 0.125-21.125-3.375-29-10-8.125-6.875-11.75-15.375-14-24-4.375-17.25-3.125-35.125 1-55 4.875-23.25 18.75-51.25 30-78-5.75-24.375-7.25-46-16-71-7.5-21.5-17.125-33.875-26-53-20.125-7.625-44.125-12.125-60-22-17.125-10.625-32.125-22.375-41-39s-7.875-40.125 4-57c5.875-8.875 13.625-15.875 24-20s21.625-4.25 31-1c18.875 6.5 32.25 21 45 38 11.875 15.75 20.25 42.5 31 64 16.125 5.375 27.75 12.125 45 16 18 4 30.125 2.125 47 4 7.25-8.25 13.375-21.5 21-28 15.25-13.25 32-23.75 52-25s40 11.25 51 30h1v1c4.875 8.5 8.25 17.75 8 28s-5.375 21-12 28c-13.125 14-29.875 17.625-48 20-14 1.875-33.5-3.125-50-4-14.5 19.125-28.875 33.5-42 58-7.125 13.25-9 24.5-15 38 4.625 21.75 13.75 46 15 65 1.5 23 0.625 42.875-6 61-3.375 9.125-8.75 18.125-17 25-8 6.625-18.375 10.75-29 11-0.375 0-0.625 0-1 0zM514 392c5.75-10.125 12.875-16.5 19-26-9-1.625-15.875 0-25-2-1.5-0.375-2.5-1.625-4-2 1.875 5 4.25 8 6 13 2 5.875 2.125 11.125 4 17zM632 327c10.75-1.375 14.625-3.375 16-4-0.25-0.5 0.375-0.375 0-1-4-6.625-4.375-6.125-7-6-2.125 0.125-10.25 4.5-18 10 2.25-0.125 7 1.25 9 1zM408 277c-1.75-2.625-3.25-8.75-5-11-9.75-13-18.75-19-21-20-0.375 0.5 0.625 0 0 1h-1c-3.25 4.625-2.375 2.75 0 7s9.875 12.875 23 21c1 0.625 3 1.375 4 2z" />
<glyph unicode="&#xe900;" glyph-name="icon-report" d="M512 960c-282.77 0-512-229.23-512-512s229.23-512 512-512c282.77 0 512 229.23 512 512v0c-0.34 282.633-229.366 511.66-511.967 512h-0.033zM467.712 878.933c1.707 0 3.243 0 4.907 0v-446.933l11.093-12.288 306.475-305.237c-74.656-62.612-171.769-100.644-277.765-100.644-239.482 0-433.621 194.139-433.621 433.621 0 223.735 169.446 407.893 387.008 431.145l1.903 0.165zM551.424 878.933c208.004-19.133 372.248-183.378 391.255-389.687l0.126-1.695h-391.424zM608.043 408.789h334.763c-7.798-91.714-43.222-173.92-97.808-239.64l0.571 0.707z" />
<glyph unicode="&#xe901;" glyph-name="icon-import" horiz-adv-x="1232" d="M0 920.118c0 22.026 17.856 39.882 39.882 39.882v0h229.977c262.107-0.35 474.496-212.713 474.89-474.775v-126.998l129.347 129.347c7.308 7.887 17.722 12.808 29.284 12.808 22.026 0 39.882-17.856 39.882-39.882 0-11.563-4.921-21.976-12.782-29.261l-0.026-0.024-197.409-197.409c-3.647-3.619-7.996-6.536-12.825-8.527l-0.264-0.096h-0.539c-4.303-1.807-9.305-2.856-14.552-2.856s-10.248 1.050-14.806 2.95l0.254-0.094h-0.616c-5.090 2.093-9.439 5.009-13.092 8.626l-197.175 197.021c-7.887 7.308-12.808 17.722-12.808 29.284 0 22.026 17.856 39.882 39.882 39.882 11.563 0 21.976-4.921 29.261-12.782l0.024-0.026 129.347-129.347v127.346c-0.307 218.152-177.115 394.907-395.258 395.125h-229.998c0 0 0 0 0 0-21.999 0-39.838 17.812-39.882 39.801v0.004zM1006.061 960h-194.868c-0.523 0.025-1.136 0.038-1.752 0.038-22.026 0-39.882-17.856-39.882-39.882s17.856-39.882 39.882-39.882c0.616 0 1.229 0.014 1.838 0.042l-0.087-0.003h194.868c80.791 0 146.286-65.494 146.286-146.286v0-572.362c0-80.791-65.494-146.286-146.286-146.286v0h-780.242c-80.791 0-146.286 65.494-146.286 146.286v0 494.6c0.025 0.523 0.038 1.136 0.038 1.752 0 22.026-17.856 39.882-39.882 39.882s-39.882-17.856-39.882-39.882c0-0.616 0.014-1.229 0.042-1.838l-0.003 0.087v-494.446c0.131-124.663 101.155-225.688 225.806-225.819h780.408c124.663 0.131 225.688 101.155 225.819 225.806v572.375c-0.131 124.663-101.155 225.688-225.806 225.819h-0.013z" />
<glyph unicode="&#xe902;" glyph-name="icon-relate" d="M742.955 959.787l-52.48-53.632 159.787-159.701h-786.048v-74.539h786.048l-159.787-159.787 52.48-53.632 250.752 250.752zM281.088 437.504l-250.752-250.752 250.752-250.965 52.48 53.632-159.787 160h786.091v74.624h-786.091l159.787 159.744z" />
<glyph unicode="&#xe903;" glyph-name="icon-master" d="M864 149.333h-490.667c-64.782 0.049-117.285 52.551-117.333 117.329v576.005c0.049 64.782 52.551 117.285 117.329 117.333h363.013c44.166-0.123 84.125-18.032 113.113-46.937l84.945-84.945c28.99-28.805 46.934-68.698 46.934-112.783 0-0.13 0-0.26 0-0.389v0.020-448.299c-0.049-64.782-52.551-117.285-117.329-117.333h-0.005zM373.333 896c-29.436-0.049-53.285-23.898-53.333-53.329v-576.005c0.024-29.445 23.888-53.309 53.331-53.333h490.669c29.445 0.024 53.309 23.888 53.333 53.331v448.301c0 0.074 0 0.161 0 0.248 0 26.432-10.749 50.353-28.114 67.63l-84.996 84.996c-17.393 17.346-41.377 28.093-67.87 28.16h-0.013zM672-64h-512c-64.782 0.049-117.285 52.551-117.333 117.329v682.672c0.049 64.782 52.551 117.285 117.329 117.333h21.338c17.673 0 32-14.327 32-32s-14.327-32-32-32v0h-21.333c-29.436-0.049-53.285-23.898-53.333-53.329v-682.672c0.049-29.436 23.898-53.285 53.329-53.333h512.005c29.436 0.049 53.285 23.898 53.333 53.329v21.338c0 17.673 14.327 32 32 32s32-14.327 32-32v0-21.333c-0.049-64.782-52.551-117.285-117.329-117.333h-0.005zM778.667 597.333h-320c-17.673 0-32 14.327-32 32s14.327 32 32 32v0h320c17.673 0 32-14.327 32-32s-14.327-32-32-32v0zM778.667 469.333h-320c-17.673 0-32 14.327-32 32s14.327 32 32 32v0h320c17.673 0 32-14.327 32-32s-14.327-32-32-32v0zM778.667 341.333h-320c-17.673 0-32 14.327-32 32s14.327 32 32 32v0h320c17.673 0 32-14.327 32-32s-14.327-32-32-32v0z" />
<glyph unicode="&#xe904;" glyph-name="icon-export" horiz-adv-x="1029" d="M1026.816 936.384v3.968l-2.624 3.968v2.624c-2.846 4.162-6.334 7.65-10.362 10.409l-0.134 0.087h-2.624l-4.096 2.56h-320.32c-21.756 0-39.392-17.636-39.392-39.392s17.636-39.392 39.392-39.392v0h207.424l-613.12-609.152c-9.45-7.264-15.481-18.572-15.481-31.289 0-21.738 17.622-39.36 39.36-39.36 12.717 0 24.025 6.031 31.221 15.388l0.069 0.093 614.4 613.12v-207.424c0-21.756 17.636-39.392 39.392-39.392s39.392 17.636 39.392 39.392v0 301.952c-0.2 2.888-0.678 5.573-1.412 8.15l0.068-0.278zM144.384-64h535.616c79.741 0 144.384 64.643 144.384 144.384v0 250.752c0 21.756-17.636 39.392-39.392 39.392s-39.392-17.636-39.392-39.392v-250.752c0-36.265-29.399-65.664-65.664-65.664v0h-535.552c-36.265 0-65.664 29.399-65.664 65.664v535.68c0 36.265 29.399 65.664 65.664 65.664v0h250.752c21.756 0 39.392 17.636 39.392 39.392s-17.636 39.392-39.392 39.392h-250.752c-79.741 0-144.384-64.643-144.384-144.384 0-0.023 0-0.045 0-0.068v0.004-535.616c0-0.019 0-0.041 0-0.064 0-79.741 64.643-144.384 144.384-144.384v0z" />
<glyph unicode="&#xe905;" glyph-name="icon-user-large" d="M512 960c-179.946-0.080-325.791-145.973-325.791-325.931 0-112.138 56.631-211.049 142.854-269.694l1.134-0.728c-167.669-72.837-282.951-236.689-283.69-427.553v-0.095h93.099c0 0.141 0 0.308 0 0.475 0 133.339 70.304 250.257 175.866 315.709l1.585 0.915c32.268-77.436 107.343-130.879 194.901-130.879s162.634 53.443 194.386 129.489l0.515 1.391c107.147-66.367 177.451-183.285 177.451-316.624 0-0.167 0-0.334 0-0.501v0.026h93.099c-0.732 190.95-115.997 354.799-280.636 426.48l-3.012 1.168c87.357 59.373 143.988 158.284 143.988 270.421 0 179.942-145.82 325.827-325.738 325.931h-0.010zM512 866.901c128.542 0 232.747-104.204 232.747-232.747s-104.204-232.747-232.747-232.747c-128.542 0-232.747 104.204-232.747 232.747 0 0.015 0 0.030 0 0.045v-0.002c-0.001 0.216-0.001 0.471-0.001 0.726 0 128.142 103.879 232.021 232.021 232.021 0.255 0 0.511 0 0.766-0.001h-0.040zM512 308.352c0.363 0.001 0.792 0.002 1.222 0.002 38.483 0 75.6-5.849 110.51-16.708l-2.633 0.706c-16.399-45.29-59.038-77.068-109.099-77.068s-92.699 31.778-108.843 76.263l-0.256 0.806c32.316 10.179 69.478 16.044 108.010 16.044 0.383 0 0.766-0.001 1.148-0.002h-0.059z" />
<glyph unicode="&#xe906;" glyph-name="icon-role" d="M398.208 960c-146.669-0.304-265.45-119.272-265.45-265.983 0-91.050 45.749-171.415 115.515-219.362l0.901-0.585c-136.218-59.641-229.76-193.068-230.229-348.398v-0.061h75.861c0.508 167.36 136.043 302.895 303.354 303.403h0.048c146.616 0 265.472 118.856 265.472 265.472s-118.856 265.472-265.472 265.472v0zM398.208 884.139c104.719 0 189.611-84.892 189.611-189.611s-84.892-189.611-189.611-189.611c-104.719 0-189.611 84.892-189.611 189.611v0c-0.006 0.561-0.009 1.223-0.009 1.887 0 103.682 84.051 187.733 187.733 187.733 0.663 0 1.326-0.003 1.988-0.010l-0.101 0.001zM705.408 466.944v-79.616c-24.397-5.299-45.967-14.505-65.168-27.035l0.742 0.454-56.875 56.875-53.163-53.077 56.875-56.875c-14.326-18.979-23.885-42.302-26.49-67.685l-0.048-0.582h-87.211v-75.861h79.616c6.063-25.827 15.208-48.599 27.236-69.501l-0.655 1.235-56.875-56.875 53.077-53.077 56.875 56.875c18.486-12.078 40.084-21.284 63.233-26.347l1.279-0.235v-79.616h75.861v79.616c24.397 5.299 45.967 14.505 65.168 27.035l-0.742-0.454 56.875-56.875 53.12 53.035-56.875 56.875c14.326 18.979 23.885 42.302 26.49 67.685l0.048 0.582h87.253v75.904h-79.659c-6.063 25.827-15.208 48.599-27.236 69.501l0.655-1.235 56.875 56.875-53.035 53.035-56.875-56.875c-18.486 12.078-40.084 21.284-63.233 26.347l-1.279 0.235v79.659zM739.541 315.221c62.846 0 113.792-50.946 113.792-113.792s-50.946-113.792-113.792-113.792c-62.846 0-113.792 50.946-113.792 113.792v0c-0.012 0.615-0.019 1.34-0.019 2.067 0 61.715 50.029 111.744 111.744 111.744 0.727 0 1.452-0.007 2.175-0.021l-0.108 0.002zM739.541 239.36c-5.068-0.061-9.843-1.251-14.105-3.329l0.196 0.086c-9.114-4.429-16.307-11.622-20.621-20.475l-0.115-0.261c-1.992-4.066-3.182-8.842-3.242-13.889v-0.021c1.050-15.431 10.474-28.434 23.725-34.582l0.254-0.106c4.066-1.993 8.842-3.183 13.889-3.242h0.020c20.949 0 37.931 16.982 37.931 37.931s-16.982 37.931-37.931 37.931v0z" />
<glyph unicode="&#xe907;" glyph-name="icon-times-circle" d="M512 960c-282.77 0-512-229.23-512-512s229.23-512 512-512c282.77 0 512 229.23 512 512v0c-0.333 282.636-229.365 511.668-511.969 512h-0.031zM512 881.225c239.264 0 433.225-193.962 433.225-433.225s-193.962-433.225-433.225-433.225c-239.264 0-433.225 193.962-433.225 433.225v0c0 0.163 0 0.356 0 0.549 0 238.961 193.716 432.677 432.677 432.677 0.193 0 0.386 0 0.579 0h-0.030zM363.081 653.531l-56.613-56.613 148.919-148.919-148.919-148.919 56.613-56.613 148.919 148.919 148.919-148.919 56.613 56.613-148.919 148.919 148.919 148.919-56.613 56.613-148.919-148.919z" />
<glyph unicode="&#xe908;" glyph-name="icon-plus-circle-solid" d="M512 960c-282.77 0-512-229.23-512-512s229.23-512 512-512c282.77 0 512 229.23 512 512v0c-0.333 282.636-229.365 511.668-511.969 512h-0.031zM512 881.225c239.264 0 433.225-193.962 433.225-433.225s-193.962-433.225-433.225-433.225c-239.264 0-433.225 193.962-433.225 433.225v0c0 0.163 0 0.356 0 0.549 0 238.961 193.716 432.677 432.677 432.677 0.193 0 0.386 0 0.579 0h-0.030zM472.613 684.288v-196.937h-196.937v-78.775h196.937v-196.937h78.775v196.974h196.937v78.775h-196.937v196.937z" />
<glyph unicode="&#xe909;" glyph-name="icon-mapping" d="M814.665 168.741h-116.151c-82.693 0.020-155.587 41.957-198.591 105.718l-0.541 0.851c-4.61 6.422-7.372 14.442-7.372 23.107 0 22.036 17.864 39.899 39.899 39.899 14.185 0 26.641-7.403 33.716-18.555l0.097-0.163c29.040-43.083 77.649-71.046 132.789-71.058h116.080l-91.429 91.429c-7.221 7.221-11.687 17.196-11.687 28.215 0 22.037 17.865 39.902 39.902 39.902 11.019 0 20.994-4.466 28.215-11.687l159.598-159.598c7.221-7.221 11.688-17.196 11.688-28.215s-4.467-20.994-11.688-28.215l-159.598-159.598c-7.221-7.221-17.196-11.687-28.215-11.687-22.037 0-39.902 17.865-39.902 39.902 0 11.019 4.466 20.994 11.687 28.215v0zM814.665 647.461h-116.151c-55.142-0.012-103.751-27.975-132.43-70.491l-0.361-0.567-200.777-301.166c-43.545-64.612-116.439-106.549-199.129-106.569h-52.775c-22.036 0-39.899 17.864-39.899 39.899s17.864 39.899 39.899 39.899h52.809c55.13 0.018 103.725 27.98 132.394 70.491l0.361 0.568 200.777 301.166c43.549 64.607 116.44 106.542 199.127 106.569h116.082l-91.429 91.429c-7.229 7.224-11.7 17.206-11.7 28.233 0 22.044 17.87 39.915 39.915 39.915 11.018 0 20.993-4.464 28.215-11.682l159.598-159.598c7.221-7.221 11.688-17.196 11.688-28.215s-4.467-20.994-11.688-28.215l-159.598-159.561c-7.221-7.221-17.196-11.687-28.215-11.687-22.037 0-39.902 17.865-39.902 39.902 0 11.019 4.466 20.994 11.687 28.215l91.429 91.429zM113.042 647.461c-22.036 0-39.899 17.864-39.899 39.899s17.864 39.899 39.899 39.899v0h52.809c82.691-0.027 155.582-41.961 198.59-105.718l0.541-0.851c4.082-6.158 6.514-13.719 6.514-21.848 0-22.036-17.864-39.899-39.899-39.899-13.657 0-25.711 6.861-32.903 17.325l-0.088 0.135c-29.040 43.083-77.649 71.046-132.789 71.058h-0.002z" />
<glyph unicode="&#xe90a;" glyph-name="icon-success-solid" d="M512-64c-282.76 0.014-511.976 229.239-511.976 512 0 141.379 57.303 269.374 149.95 362.027v0c92.937 94.42 222.124 152.922 364.975 152.922 282.77 0 512-229.23 512-512 0-142.851-58.502-272.038-152.855-364.909l-0.067-0.066c-92.148-92.641-219.714-149.975-360.671-149.975-0.476 0-0.953 0.001-1.429 0.002h0.073zM291.328 544.384l-120.661-112.896 256-239.488 426.667 399.147-120.661 112.853-306.005-286.251-135.339 126.635z" />
<glyph unicode="&#xe90b;" glyph-name="icon-filter" horiz-adv-x="976" d="M187.31 812.486v113.491c0 18.807-15.246 34.053-34.053 34.053s-34.053-15.246-34.053-34.053v0-113.491c-68.624-16.3-118.882-77.066-118.882-149.571s50.259-133.271 117.838-149.362l1.044-0.21v-543.075c0-18.807 15.246-34.053 34.053-34.053s34.053 15.246 34.053 34.053v543.136c68.624 16.3 118.882 77.066 118.882 149.571s-50.259 133.271-117.838 149.362l-1.044 0.21zM153.164 577.581c-0.128-0.001-0.279-0.001-0.43-0.001-47.111 0-85.303 38.191-85.303 85.303s38.191 85.303 85.303 85.303c47.111 0 85.302-38.191 85.303-85.302v0c0 0 0-0.001 0-0.001 0-46.96-37.947-85.058-84.85-85.301h-0.023zM522.072 382.657v543.321c0 18.807-15.246 34.053-34.053 34.053s-34.053-15.246-34.053-34.053v0-543.075c-68.624-16.3-118.882-77.066-118.882-149.571s50.259-133.271 117.838-149.362l1.044-0.21v-113.491c0-18.807 15.246-34.053 34.053-34.053s34.053 15.246 34.053 34.053v0 113.246c68.624 16.3 118.882 77.066 118.882 149.571s-50.259 133.271-117.838 149.362l-1.044 0.21zM488.049 147.568c-47.111 0-85.303 38.191-85.303 85.303s38.191 85.303 85.303 85.303c47.111 0 85.303-38.191 85.303-85.303v0c0-0.018 0-0.040 0-0.062 0-47.111-38.191-85.303-85.303-85.303-0.086 0-0.173 0-0.259 0h0.013zM975.729 507.693c-0.072 72.627-50.559 133.441-118.348 149.335l-1.039 0.205v268.743c0 18.807-15.246 34.053-34.053 34.053s-34.053-15.246-34.053-34.053v0-268.498c-68.624-16.3-118.882-77.066-118.882-149.571s50.259-133.271 117.838-149.362l1.044-0.21v-387.823c0-18.807 15.246-34.053 34.053-34.053s34.053 15.246 34.053 34.053v0 386.902c68.876 16.111 119.388 77 119.388 149.688 0 0.207 0 0.415-0.001 0.622v-0.032zM822.197 422.391c-47.111 0-85.303 38.191-85.303 85.303s38.191 85.303 85.303 85.303c47.111 0 85.303-38.191 85.303-85.303v0c0 0 0 0 0 0 0-47.068-38.121-85.233-85.173-85.303h-0.007z" />
<glyph unicode="&#xe90c;" glyph-name="icon-error" horiz-adv-x="1209" d="M1136.786-64.036h-1065.673c-25.923 0.283-48.33 15.062-59.522 36.602l-0.178 0.377c-7.186 12.757-11.42 28.006-11.42 44.243 0 17.267 4.787 33.416 13.107 47.192l-0.23-0.41 532.89 861.114c11.326 20.931 33.116 34.908 58.171 34.908s46.845-13.977 57.998-34.56l0.172-0.348 532.854-861.114c8.728-13.339 13.921-29.678 13.921-47.229 0-15.274-3.933-29.63-10.841-42.11l0.227 0.447c-11.51-22.933-34.606-38.526-61.4-39.111l-0.077-0.001zM603.932 261.842c-0.011 0-0.023 0-0.036 0-38.568 0-69.834-31.266-69.834-69.834s31.266-69.834 69.834-69.834c38.555 0 69.813 31.245 69.834 69.796v0.002c0.012 0.482 0.019 1.049 0.019 1.618 0 37.704-30.565 68.269-68.269 68.269-0.544 0-1.087-0.006-1.629-0.019l0.080 0.001zM557.388 657.483c-0.383 0.024-0.831 0.037-1.282 0.037-12.175 0-22.045-9.87-22.045-22.045 0-0.451 0.014-0.899 0.040-1.343l-0.003 0.061v-302.517c-0.024-0.383-0.037-0.831-0.037-1.282 0-12.175 9.87-22.045 22.045-22.045 0.451 0 0.899 0.014 1.343 0.040l-0.061-0.003h93.088c0.372-0.022 0.808-0.035 1.246-0.035 12.175 0 22.045 9.87 22.045 22.045 0 0.45-0.013 0.897-0.040 1.341l0.003-0.061v302.482c0.024 0.382 0.037 0.83 0.037 1.28 0 12.175-9.87 22.045-22.045 22.045-0.438 0-0.874-0.013-1.306-0.038l0.060 0.003z" />
<glyph unicode="&#xe90d;" glyph-name="icon-unsuccessful" d="M512 960c-282.77 0-512-229.23-512-512s229.23-512 512-512c282.77 0 512 229.23 512 512v0c-0.333 282.636-229.365 511.668-511.969 512h-0.031zM512 881.225c0.051 0 0.112 0 0.172 0 239.163 0 433.042-193.88 433.042-433.042 0-107.419-39.111-205.702-103.871-281.387l0.494 0.592-604.123 616.594c73.687 60.543 168.962 97.246 272.81 97.246 0.519 0 1.038-0.001 1.557-0.003h-0.081zM182.162 728.613l604.123-616.631c-73.979-60.62-169.558-97.36-273.718-97.36-239.385 0-433.445 194.060-433.445 433.445 0 107.283 38.977 205.462 103.542 281.151l-0.503-0.604z" />
<glyph unicode="&#xe90e;" glyph-name="icon-success" d="M512 960c-282.77 0-512-229.23-512-512s229.23-512 512-512c282.77 0 512 229.23 512 512v0c0.042 2.298 0.067 5.009 0.067 7.725 0 55.093-9.946 107.864-28.142 156.613l1.012-3.094-64-62.757c7.806-29.479 12.288-63.323 12.288-98.213 0-0.096 0-0.193 0-0.289v0.015c0-239.264-193.962-433.225-433.225-433.225s-433.225 193.962-433.225 433.225c0 239.264 193.962 433.225 433.225 433.225v0c0.74 0.005 1.615 0.007 2.491 0.007 115.646 0 220.424-46.535 296.629-121.901l-0.039 0.038 55.369 55.369c-90.303 89.775-214.774 145.267-352.206 145.267-0.789 0-1.578-0.002-2.366-0.005h0.121zM956.306 791.369l-444.306-444.306-168.631 168.631-56.613-56.722 196.937-196.937 28.306-27.063 28.306 27.063 472.722 472.722z" />
<glyph unicode="&#xe90f;" glyph-name="icon-minus-light" d="M512 960c-282.77 0-512-229.23-512-512s229.23-512 512-512c282.77 0 512 229.23 512 512v0c-0.34 282.633-229.366 511.66-511.967 512h-0.033zM512-7.125c-251.359 0-455.125 203.767-455.125 455.125s203.767 455.125 455.125 455.125c251.359 0 455.125-203.767 455.125-455.125v0c-0.291-251.241-203.883-454.834-455.097-455.125h-0.028zM696.875 478.805h-369.792c-17.013 0-30.805-13.792-30.805-30.805s13.792-30.805 30.805-30.805v0h369.792c17.013 0 30.805 13.792 30.805 30.805s-13.792 30.805-30.805 30.805v0z" />
<glyph unicode="&#xe910;" glyph-name="icon-left-light" horiz-adv-x="1265" d="M97.28 422.4h1167.36v51.2h-1167.36l486.4 486.4h-71.68l-512-512 512-512h71.68z" />
<glyph unicode="&#xe911;" glyph-name="icon-right-solid" horiz-adv-x="1308" d="M1308.369 448.075c0.019 0.52 0.029 1.131 0.029 1.744 0 12.927-4.714 24.753-12.517 33.853l0.059-0.070-370.017 455.111c-10.786 13.109-27.011 21.403-45.174 21.403-13.909 0-26.681-4.864-36.709-12.985l0.109 0.086c-12.244-10.342-19.966-25.705-19.966-42.871 0-14.112 5.219-27.005 13.833-36.854l-0.056 0.065 294.282-362.418h-1075.379c-31.419 0-56.889-25.47-56.889-56.889s25.47-56.889 56.889-56.889v0h1075.379l-294.182-362.619c-8.507-10.132-13.675-23.317-13.675-37.709 0-18.192 8.258-34.455 21.229-45.245l0.096-0.077c9.437-5.949 20.916-9.479 33.22-9.479 18.814 0 35.7 8.253 47.236 21.336l0.059 0.069 369.765 455.061c7.739 8.492 12.479 19.836 12.479 32.286 0 1.087-0.036 2.166-0.107 3.235l0.008-0.145z" />
<glyph unicode="&#xe912;" glyph-name="icon-reports" d="M789.803 734.251v-667.819c0.025-0.326 0.039-0.705 0.039-1.088s-0.014-0.762-0.042-1.138l0.003 0.050c0-4.267 0.512 0.427 0 0.512-0.117-1.051-0.297-1.993-0.543-2.908l0.031 0.135c-0.427-1.963-1.365-3.925-1.749-5.888-0.512-2.688 2.389 4.267 0 0.64-0.725-1.152-1.237-2.389-1.963-3.499 0-0.299-1.451-2.261-1.536-2.261s2.987 3.328 0.725 1.024c-1.536-1.664-3.115-3.2-4.779-4.779s0.939 1.024 1.024 0.725-2.389-1.536-2.261-1.536c-0.682-0.471-1.465-0.926-2.283-1.319l-0.106-0.046c-4.267-2.389 0-0.811 0 0 0-0.64-6.016-1.877-6.613-2.091-1.093-0.143-2.034-0.323-2.956-0.55l0.183 0.038c3.712 1.451 3.115 0.299 1.237 0.299h-561.92c-0.326-0.030-0.705-0.046-1.088-0.046s-0.762 0.017-1.137 0.050l0.049-0.003c-4.267 0 0.427-0.512 0.512 0 0-0.427-4.779 1.024-5.504 1.237s-1.749 0.64-2.603 0.811c-4.267 1.237 3.413-1.963 0 0-0.427 0-5.888 2.987-5.803 3.499s3.925-3.499 1.024-0.725c-0.64 0.64-1.365 1.152-1.963 1.877s-1.536 1.664-2.261 2.475c-2.987 2.987 0.299-0.512 0.299-0.512s-3.115 5.077-3.499 5.803c-1.664 2.773 0.725-1.237 0.427-1.237-0.397 0.75-0.721 1.619-0.925 2.532l-0.013 0.070c-0.754 1.95-1.337 4.226-1.648 6.588l-0.016 0.153s0.299-5.504 0.299-1.237c0 0.939 0 1.963 0 2.901v615.936c0 17.067 0 34.133 0 51.2 0 1.152 0 2.261 0 3.413 0 4.651-0.811-3.413 0-0.64 0.299 1.152 0.427 2.261 0.725 3.413s1.024 5.077 1.664 5.291c0 0-2.261-4.267 0-0.64 0.64 0.939 1.024 1.963 1.664 2.901s1.451 2.261 1.536 2.261c-1.749-2.176-2.176-2.688-1.152-1.536 0.446 0.561 0.893 1.062 1.366 1.536v0c1.237 1.365 2.603 2.475 3.84 3.712 3.115 2.987-2.901-1.365-0.427-0.299 1.070 0.569 1.993 1.192 2.843 1.899l-0.027-0.021c0.811 0.427 1.536 0.811 2.389 1.365 3.499 2.091-1.237-0.64-1.237-0.427s6.613 2.091 7.253 2.176c4.267 0.811-0.512 0.427-0.64 0s2.987 0 2.901 0h110.933l-20.693 20.693v-50.219c0-1.877 0-3.84 0-5.675 0.457-13.951 11.649-25.143 25.557-25.599l0.043-0.001c1.877 0 3.712 0 5.504 0h313.301c3.115 0 6.315 0 9.429 0 0.26-0.009 0.565-0.014 0.871-0.014 14.34 0 26.028 11.356 26.562 25.566l0.001 0.049c0.725 16.683 0 33.536 0 50.219v5.675l-20.693-20.693c36.523 0 73.088 0.512 109.611 0h3.627c1.664 0 0.939 0-1.963 0.299 1.093-0.143 2.034-0.322 2.955-0.55l-0.182 0.038c0.725 0 6.4-1.237 6.613-2.091 0 0-4.267 2.261-0.64 0 1.365-0.811 2.688-1.664 4.053-2.389 2.816-1.664-1.237 0.725-0.939 0.811s2.603-2.261 2.987-2.688l2.816-2.901c2.688-2.901-2.091 3.627 0 0 0.427-0.725 3.712-5.589 3.328-5.888-0.358 1.014-0.704 1.831-1.090 2.625l0.066-0.15 0.939-2.603c0.427-1.365 0.811-2.688 1.152-4.053 0.226-0.792 0.406-1.734 0.506-2.7l0.006-0.073q-0.64 4.821-0.299 1.237c0.183-0.958 0.291-2.064 0.299-3.193v-0.007c0-11.429 9.265-20.693 20.693-20.693s20.693 9.265 20.693 20.693v0c-0.172 25.796-15.153 48.052-36.86 58.708l-0.388 0.172c-9.706 4.177-21.005 6.606-32.87 6.606-1.284 0-2.562-0.028-3.833-0.085l0.181 0.006h-101.248c-11.352-0.189-20.505-9.341-20.693-20.675v-53.735c0-5.291-0.939 1.877 1.365 4.779l7.467 7.467c2.987 2.389 10.027 1.365 4.779 1.365h-325.12c-6.016 0 0.811 1.152 4.267-1.365l7.467-7.467c2.688-3.499 1.237-9.941 1.365-5.077v53.931c-0.189 11.352-9.341 20.505-20.675 20.693h-0.018c-36.224 0-72.533 0-108.672 0-36.362-0.022-65.875-29.311-66.261-65.585v-0.037c0-4.779 0-9.515 0-14.379v-619.648c-0.649-4.965-1.019-10.706-1.019-16.534 0-17.698 3.413-34.598 9.617-50.079l-0.321 0.907c11.787-20.21 33.362-33.575 58.059-33.575 0.799 0 1.594 0.014 2.387 0.042l-0.115-0.003h554.667c0.237-0.003 0.518-0.005 0.799-0.005 31.79 0 58.338 22.445 64.661 52.352l0.076 0.432c1.217 10.275 1.912 22.176 1.912 34.24 0 6.447-0.198 12.847-0.589 19.196l0.043-0.871v627.925c-0.119 11.38-9.313 20.574-20.682 20.693h-0.011c-0.14 0.003-0.305 0.005-0.471 0.005-11.317 0-20.508-9.103-20.649-20.387v-0.013zM651.221 859.264h-105.557l20.693-20.693c0.151 2.882 0.237 6.257 0.237 9.652 0 10.144-0.769 20.109-2.251 29.839l0.137-1.091c-5.396 24.73-21.706 44.812-43.51 55.26l-0.479 0.207c-10.081 4.77-21.901 7.555-34.371 7.555-13.636 0-26.494-3.33-37.806-9.221l0.454 0.215c-19.204-10.25-33.533-27.512-39.705-48.284l-0.145-0.57c-2.209-9.845-3.475-21.152-3.475-32.754 0-3.728 0.131-7.426 0.388-11.088l-0.028 0.493 20.693 20.693h-74.411c-10.155 0-20.395 0.299-30.635 0-14.459-0.097-26.149-11.816-26.197-26.278v-0.005c0-3.328 0-6.741 0-10.155v-88.405c0-3.499 0-7.040 0-10.539 0-0.029 0-0.063 0-0.098 0-14.301 11.367-25.948 25.559-26.397l0.041-0.001c3.712 0 7.552 0 11.264 0h318.293c14.17 0.159 25.646 11.471 26.068 25.561l0.001 0.039c0.427 8.533 0 17.493 0 26.197 0 27.52 0.512 54.955 0 82.475v1.749c-0.141 7.065-2.995 13.437-7.558 18.14l0.006-0.007c-4.607 4.61-10.901 7.533-17.877 7.764l-0.043 0.001c-11.409-0.048-20.645-9.284-20.693-20.689v-0.005c0.344-11.287 9.406-20.349 20.661-20.693l0.032-0.001c-0.446-0.024-0.968-0.038-1.493-0.038s-1.047 0.014-1.566 0.041l0.072-0.003-9.088 5.291c-4.565 3.499-3.627 15.104-3.627 7.68v-106.667c0-3.413-1.877 1.749 1.365 6.016l7.467 7.467c2.987 2.389 10.027 1.365 4.779 1.365h-325.12c-6.016 0 0.811 1.152 4.267-1.365l7.467-7.467c2.475-3.2 1.365-10.24 1.365-4.267v106.667c0 4.779 3.84-3.712-3.627-9.429l-9.131-5.291s-4.267 0-2.475 0h105.045c11.352 0.189 20.505 9.341 20.693 20.675v0.018c0 8.533-0.512 17.493 0 26.069 0.427 5.291-0.811-3.712 0.299 1.451 0.427 1.877 0.811 3.627 1.365 5.376s0.725 2.176 1.152 3.328c1.024 3.115-0.427-1.237-0.512-1.152 0.736 2.052 1.673 3.828 2.82 5.445l-0.047-0.069c0.939 1.536 2.048 2.987 2.901 4.565 1.451 2.475-3.328-3.712-0.427-0.427 0.64 0.64 1.152 1.365 1.749 2.091s2.475 2.603 3.84 3.84c0.64 0.64 1.365 1.152 2.091 1.749 2.987 2.688-3.627-2.261 0 0 0.939 0.64 8.533 6.016 9.429 5.291s-4.949-1.749-1.152-0.512l2.603 0.939c1.852 0.629 4.119 1.206 6.444 1.62l0.298 0.044c3.115 0.725-1.024 0-1.365 0 0.826 0.175 1.782 0.283 2.761 0.299h0.013c0.898 0.050 1.95 0.078 3.008 0.078s2.11-0.028 3.154-0.084l-0.146 0.006c1.152 0 2.261 0 3.328 0 4.651 0-0.512 0-0.512 0 0.939 0.725 6.741-1.536 7.979-1.877 1.129-0.237 2.127-0.59 3.059-1.057l-0.072 0.033s-4.267 2.176-0.512 0c2.239-1.047 4.071-2.042 5.841-3.13l-0.251 0.144c0.939-0.512 1.749-1.152 2.688-1.749 3.627-2.261 0 0.427-0.427 0.427 1.749-0.299 4.651-4.267 5.803-5.376 0.717-0.728 1.389-1.508 2.006-2.33l0.042-0.059c2.901-3.2 0 0.427-0.299 0.512 1.024-0.299 2.901-4.267 3.413-5.291l1.536-2.773s1.963-4.949 0.939-1.877 0-0.64 0.299-1.237 0.811-2.603 1.152-3.925 0.427-2.176 0.725-3.2c1.237-5.077 0 4.267 0-1.024 0-1.749 0-3.499 0-5.291v-20.821c0.189-11.352 9.341-20.505 20.675-20.693h106.13c11.38 0.119 20.574 9.313 20.693 20.682v0.011c-0.502 11.16-9.506 20.059-20.662 20.394l-0.032 0.001zM485.803 847.573h0.811l-5.504 0.725c0.847-0.131 1.607-0.354 2.322-0.663l-0.061 0.023-4.949 2.091c0.512 0 0.939-0.512 1.365-0.725l-4.267 3.2c0.61-0.509 1.155-1.054 1.647-1.644l0.017-0.020-3.2 4.267c0.287-0.393 0.532-0.844 0.713-1.326l0.013-0.039c-0.725 1.664-1.365 3.328-2.091 4.949 0.302-0.657 0.526-1.42 0.635-2.219l0.005-0.043c0 1.877-0.512 3.627-0.725 5.504 0.052-0.25 0.082-0.538 0.082-0.832s-0.030-0.582-0.087-0.859l0.005 0.027c0 1.877 0.512 3.627 0.725 5.504-0.129-0.846-0.352-1.607-0.663-2.321l0.023 0.060c0.725 1.664 1.365 3.328 2.091 4.949 0-0.512-0.512-0.939-0.725-1.365l3.2 4.267c-0.509-0.61-1.054-1.155-1.644-1.647l-0.020-0.017 4.267 3.2c-0.393-0.288-0.844-0.533-1.327-0.713l-0.039-0.013 4.949 2.091c-0.657-0.301-1.419-0.525-2.218-0.635l-0.043-0.005 5.504 0.725c-0.25-0.052-0.538-0.082-0.832-0.082s-0.582 0.030-0.859 0.087l0.027-0.005 5.504-0.725c-0.846 0.13-1.607 0.353-2.322 0.663l0.060-0.023 4.949-2.091c-0.512 0-0.939 0.512-1.365 0.725l4.267-3.2c-0.61 0.509-1.155 1.054-1.647 1.644l-0.017 0.020 3.2-4.267c-0.287 0.393-0.532 0.844-0.713 1.326l-0.013 0.039c0.725-1.664 1.365-3.328 2.091-4.949-0.302 0.657-0.526 1.42-0.635 2.219l-0.005 0.043c0-1.877 0.512-3.627 0.725-5.504-0.052 0.25-0.082 0.538-0.082 0.832s0.030 0.582 0.087 0.859l-0.005-0.027c0-1.877-0.512-3.627-0.725-5.504 0.129 0.846 0.352 1.607 0.663 2.321l-0.023-0.060c-0.725-1.664-1.365-3.328-2.091-4.949 0 0.512 0.512 0.939 0.725 1.365l-3.2-4.267c0.509 0.61 1.054 1.155 1.644 1.647l0.020 0.017-4.267-3.2c0.393 0.288 0.844 0.533 1.327 0.713l0.039 0.013-4.949-2.091c0.657 0.301 1.419 0.525 2.218 0.635l0.043 0.005-5.504-0.725h0.811c11.429 0 20.693 9.265 20.693 20.693s-9.265 20.693-20.693 20.693v0c-7.737-0.204-14.709-3.321-19.893-8.288l0.011 0.010c-4.999-5.073-8.085-12.041-8.085-19.731 0-15.529 12.589-28.117 28.117-28.117s28.117 12.589 28.117 28.117c0 7.689-3.087 14.658-8.089 19.734l0.003-0.003c-5.196 5.144-12.297 8.372-20.151 8.533h-0.031c-11.409-0.048-20.645-9.284-20.693-20.689v-0.005c0.207-11.411 9.343-20.622 20.706-20.949l0.030-0.001zM472.832 860.8v-0.811c0 1.877 0.512 3.627 0.725 5.504-0.131-0.847-0.354-1.607-0.663-2.322l0.023 0.061c0.725 1.664 1.365 3.328 2.091 4.949 0-0.512-0.512-0.939-0.725-1.365l3.2 4.267c-0.509-0.61-1.054-1.155-1.644-1.647l-0.020-0.017 4.267 3.2c-0.393-0.288-0.844-0.533-1.327-0.713l-0.039-0.013 4.949 2.091c-0.657-0.301-1.419-0.525-2.218-0.635l-0.043-0.005 5.504 0.725c-0.25-0.052-0.538-0.082-0.832-0.082s-0.582 0.030-0.859 0.087l0.027-0.005 5.504-0.725c-0.846 0.13-1.607 0.353-2.322 0.663l0.060-0.023 4.949-2.091c-0.512 0-0.939 0.512-1.365 0.725l4.267-3.2c-0.61 0.509-1.155 1.054-1.647 1.644l-0.017 0.020 3.2-4.267c-0.287 0.393-0.532 0.844-0.713 1.326l-0.013 0.039c0.725-1.664 1.365-3.328 2.091-4.949-0.302 0.657-0.526 1.42-0.635 2.219l-0.005 0.043c0-1.877 0.512-3.627 0.725-5.504-0.052 0.25-0.082 0.538-0.082 0.832s0.030 0.582 0.087 0.859l-0.005-0.027c0-1.877-0.512-3.627-0.725-5.504 0.129 0.846 0.352 1.607 0.663 2.321l-0.023-0.060c-0.725-1.664-1.365-3.328-2.091-4.949 0 0.512 0.512 0.939 0.725 1.365l-3.2-4.267c0.509 0.61 1.054 1.155 1.644 1.647l0.020 0.017-4.267-3.2c0.393 0.288 0.844 0.533 1.327 0.713l0.039 0.013-4.949-2.091c0.657 0.301 1.419 0.525 2.218 0.635l0.043 0.005-5.504-0.725c0.25 0.052 0.538 0.082 0.832 0.082s0.582-0.030 0.859-0.087l-0.027 0.005-5.504 0.725c0.847-0.131 1.607-0.354 2.322-0.663l-0.061 0.023-4.949 2.091c0.512 0 0.939-0.512 1.365-0.725l-4.267 3.2c0.61-0.509 1.155-1.054 1.647-1.644l0.017-0.020-3.2 4.267c0.287-0.393 0.532-0.844 0.713-1.326l0.013-0.039c-0.725 1.664-1.365 3.328-2.091 4.949 0.3-0.657 0.525-1.419 0.635-2.218l0.005-0.043c0 1.877-0.512 3.627-0.725 5.504v-0.811c0-11.429 9.265-20.693 20.693-20.693s20.693 9.265 20.693 20.693v0c-0.204 7.737-3.321 14.709-8.288 19.893l0.010-0.011c-5.073 4.999-12.041 8.085-19.731 8.085-15.529 0-28.117-12.589-28.117-28.117s12.589-28.117 28.117-28.117c7.689 0 14.658 3.087 19.734 8.089l-0.003-0.003c5.144 5.196 8.372 12.297 8.533 20.151v0.031c-0.048 11.409-9.284 20.645-20.689 20.693h-0.005c-11.411-0.207-20.622-9.343-20.949-20.706l-0.001-0.030zM468.181 860.8v-0.299c0 1.877 0.512 3.627 0.725 5.504 0.022-0.122 0.034-0.262 0.034-0.405s-0.012-0.283-0.036-0.42l0.002 0.015c0.725 1.664 1.365 3.328 2.048 4.949l-0.299-0.512 3.2 4.267-0.64-0.64 4.267 3.2-0.512-0.299 4.949 2.091c-0.122-0.022-0.262-0.034-0.405-0.034s-0.283 0.012-0.42 0.036l0.015-0.002 5.504 0.725h-0.64l5.504-0.725c-0.122-0.022-0.262-0.034-0.405-0.034s-0.283 0.012-0.42 0.036l0.015-0.002 4.949-2.091-0.512 0.299 4.267-3.2-0.64 0.64 3.2-4.267-0.299 0.512c0.725-1.664 1.365-3.328 2.048-4.949-0.022 0.122-0.034 0.262-0.034 0.405s0.012 0.283 0.036 0.42l-0.002-0.015c0-1.877 0.512-3.627 0.725-5.504v0.64c0-1.877-0.512-3.627-0.725-5.504-0.022 0.122-0.034 0.262-0.034 0.405s0.012 0.283 0.036 0.42l-0.002-0.015c-0.725-1.664-1.365-3.328-2.048-4.949l0.299 0.512-3.2-4.267 0.64 0.64-4.267-3.2 0.512 0.299-4.949-2.091c0.122 0.022 0.262 0.034 0.405 0.034s0.283-0.012 0.42-0.036l-0.015 0.002-5.504-0.725h0.64l-5.504 0.725c0.122 0.022 0.262 0.034 0.405 0.034s0.283-0.012 0.42-0.036l-0.015 0.002-4.949 2.091 0.512-0.299-4.267 3.2 0.64-0.64-3.2 4.267 0.299-0.512c-0.725 1.664-1.365 3.328-2.048 4.949 0.022-0.122 0.034-0.262 0.034-0.405s-0.012-0.283-0.036-0.42l0.002 0.015c0 1.877-0.512 3.627-0.725 5.504v-0.299c-0.008-0.193-0.013-0.42-0.013-0.648 0-2.676 0.652-5.199 1.805-7.42l-0.042 0.090c0.876-2.623 2.345-4.849 4.255-6.603l0.011-0.010c3.846-3.544 8.937-5.79 14.548-6.015l0.044-0.001 5.504 0.725c3.558 1.057 6.611 2.884 9.093 5.296l-0.005-0.005c3.728 3.744 6.049 8.892 6.101 14.582v0.010c-0.043 1.127-0.196 2.195-0.449 3.224l0.023-0.109c-0.032 2.22-0.646 4.291-1.695 6.074l0.031-0.058c-0.394 1.148-0.855 2.134-1.406 3.061l0.041-0.075-3.2 4.267-0.597 0.597-4.267 3.2c-1.575 0.921-3.397 1.732-5.311 2.337l-0.193 0.053c-1.939 0.65-4.171 1.024-6.491 1.024-0.043 0-0.086 0-0.129 0h0.007c-0.078 0.001-0.169 0.002-0.261 0.002-2.272 0-4.456-0.375-6.494-1.068l0.142 0.042c-2.093-0.6-3.921-1.415-5.602-2.445l0.098 0.056-4.267-3.2-0.597-0.597-3.2-4.267c-0.51-0.852-0.971-1.839-1.331-2.873l-0.034-0.114c-0.409-0.805-0.827-1.791-1.183-2.807l-0.055-0.179c0-1.024-0.299-2.091-0.427-2.987s-0.299-2.091-0.427-3.115c0-0.056-0.001-0.122-0.001-0.188 0-6.374 2.612-12.137 6.824-16.278l0.003-0.003c2.111-2.068 4.619-3.741 7.397-4.893l0.155-0.057c0.802-0.406 1.789-0.824 2.804-1.181l0.183-0.056c1.024 0 2.048-0.299 2.987-0.427 0.791-0.17 1.782-0.321 2.788-0.418l0.113-0.009h0.427l5.504 0.725h0.811c3.852 1.154 7.152 3.158 9.815 5.804l-0.001-0.001c1.431 1.505 2.726 3.166 3.848 4.946l0.077 0.131c1.889 3.346 3.034 7.334 3.114 11.581v0.024c0.009 0.196 0.013 0.426 0.013 0.657 0 2.673-0.652 5.193-1.805 7.411l0.042-0.089c-0.876 2.623-2.345 4.849-4.255 6.603l-0.011 0.010c-3.846 3.544-8.937 5.79-14.548 6.015l-0.044 0.001-5.504-0.725c-3.558-1.057-6.611-2.884-9.093-5.296l0.005 0.005-3.2-4.267c-1.561-2.777-2.481-6.095-2.481-9.628 0-0.17 0.002-0.34 0.006-0.509v0.025zM272.896 535.467h373.76c17.28 0 34.688-0.427 51.968 0h0.725c11.429 0 20.693 9.265 20.693 20.693s-9.265 20.693-20.693 20.693h-373.888c-17.28 0-34.688 0.427-51.968 0h-0.725c-11.38-0.119-20.574-9.313-20.693-20.682v-0.011c0.344-11.287 9.406-20.349 20.661-20.693l0.032-0.001zM272.896 367.147h373.76c17.28 0 34.688-0.427 51.968 0h0.725c11.429 0 20.693 9.265 20.693 20.693s-9.265 20.693-20.693 20.693h-373.888c-17.28 0-34.688 0.427-51.968 0h-0.725c-11.429 0-20.693-9.265-20.693-20.693s9.265-20.693 20.693-20.693v0zM272.896 198.912h91.307c11.429 0 20.693 9.265 20.693 20.693s-9.265 20.693-20.693 20.693h-91.307c-11.429 0-20.693-9.265-20.693-20.693s9.265-20.693 20.693-20.693v0zM684.715 292.48l-154.752-154.752h29.312l-71.125 71.125c-3.749 3.754-8.931 6.077-14.656 6.077-11.439 0-20.712-9.273-20.712-20.712 0-5.714 2.314-10.888 6.056-14.635v0l71.125-71.125c3.784-3.678 8.955-5.946 14.656-5.946s10.872 2.268 14.661 5.951l154.747 154.747c3.751 3.751 6.071 8.932 6.071 14.656 0 11.447-9.28 20.727-20.727 20.727-5.724 0-10.905-2.32-14.656-6.071v0z" />
<glyph unicode="&#xe913;" glyph-name="icon-dashboard" d="M566.272 360.661l88.149 88.149c6.382 6.19 15.097 10.006 24.704 10.006s18.322-3.816 24.713-10.015l-0.009 0.009c6.183-6.139 10.011-14.644 10.011-24.043s-3.827-17.903-10.009-24.041l-89.602-89.602c6.678-12.816 10.616-27.98 10.667-44.059v-0.016c-1.169-56.313-46.514-101.657-102.716-102.825l-0.11-0.002c-28.705 0.235-54.633 11.927-73.474 30.722l0.002-0.002c-18.169 18.239-29.402 43.398-29.402 71.181 0 0.326 0.002 0.651 0.005 0.976v-0.050c-0.003 0.297-0.005 0.647-0.005 0.998 0 28.191 11.215 53.763 29.426 72.498l-0.024-0.024c19.248 17.903 45.027 29.013 73.395 29.397l0.077 0.001c15.978-0.279 31.086-3.688 44.84-9.639l-0.765 0.295zM42.667 268.501c0 0.227-0.001 0.495-0.001 0.763 0 131.776 53.616 251.029 140.223 337.134l0.023 0.023c86.602 86.649 206.267 140.246 338.45 140.246 0.294 0 0.588 0 0.882-0.001h-0.046c0.516 0.002 1.127 0.003 1.738 0.003 131.469 0 250.412-53.632 336.144-140.21l0.038-0.038c87.214-86.677 141.282-206.618 141.568-339.188v-0.054c-0.403-18.539-15.528-33.413-34.126-33.413-0.213 0-0.425 0.002-0.637 0.006h-68.235c-0.395-0.017-0.858-0.026-1.323-0.026-18.451 0-33.408 14.957-33.408 33.408 0 0.009 0 0.018 0 0.028v-0.001c-0.001 0.076-0.001 0.167-0.001 0.257 0 19.040 15.435 34.475 34.475 34.475 0.090 0 0.181 0 0.271-0.001h32.029c-6.983 88.841-41.517 168.494-94.956 231.637l0.492-0.597-24.021-24.021c-6.139-6.183-14.644-10.011-24.043-10.011s-17.903 3.827-24.041 10.009l-0.002 0.002c-6.19 6.382-10.006 15.097-10.006 24.704s3.816 18.322 10.015 24.713l22.69 22.69c-62.599 53.181-142.129 88.199-229.489 96.055l-1.594 0.116v-33.365c0.003-0.18 0.005-0.392 0.005-0.605 0-18.598-14.874-33.722-33.376-34.125l-0.038-0.001c-19.038 0.352-34.378 15.693-34.73 34.697v33.398c-88.969-8.21-168.497-43.182-231.875-96.682l0.622 0.512 24.021-22.699c6.025-6.269 9.736-14.801 9.736-24.2 0-19.299-15.645-34.944-34.944-34.944-9.399 0-17.931 3.711-24.212 9.747l0.012-0.011-22.699 24.021c-52.958-62.712-87.924-142.176-96.046-229.43l-0.124-1.653h33.365c19.038-0.352 34.378-15.693 34.73-34.697v-0.033c-0.403-18.539-15.528-33.413-34.126-33.413-0.213 0-0.425 0.002-0.637 0.006h-68.064c-0.395-0.017-0.858-0.026-1.323-0.026-18.451 0-33.408 14.957-33.408 33.408 0 0.009 0 0.018 0 0.028v-0.001zM546.133 291.2c-6.020 6.46-14.532 10.528-23.996 10.666h-0.025c-18.77-0.99-33.741-15.961-34.727-34.64l-0.004-0.091c0.139-9.489 4.207-18.002 10.647-24.003l0.020-0.018c5.529-5.805 13.318-9.415 21.949-9.415 0.729 0 1.452 0.026 2.168 0.076l-0.096-0.005c0.417-0.019 0.905-0.030 1.396-0.030 17.697 0 32.043 14.346 32.043 32.043 0 0.491-0.011 0.979-0.033 1.465l0.002-0.069c0.045 0.62 0.071 1.343 0.071 2.072 0 8.632-3.61 16.42-9.403 21.938l-0.012 0.012z" />
<glyph unicode="&#xe914;" glyph-name="icon-users" d="M391.509 832c-98.168 0-177.749-79.581-177.749-177.749s79.581-177.749 177.749-177.749c98.168 0 177.749 79.581 177.749 177.749v0c-0.266 98.061-79.688 177.483-177.724 177.749h-0.026zM391.509 772.736c0.013 0 0.028 0 0.043 0 65.461 0 118.528-53.067 118.528-118.528s-53.067-118.528-118.528-118.528c-65.461 0-118.528 53.067-118.528 118.528 0 0.015 0 0.030 0 0.045v-0.002c0 0.127-0.001 0.277-0.001 0.427 0 65.202 52.857 118.059 118.059 118.059 0.15 0 0.301 0 0.451-0.001h-0.023zM727.253 723.371c-70.905 0-128.384-57.479-128.384-128.384s57.479-128.384 128.384-128.384c70.905 0 128.384 57.479 128.384 128.384v0c-0.266 70.797-57.587 128.118-128.359 128.384h-0.025zM727.253 664.107c38.174 0 69.12-30.946 69.12-69.12s-30.946-69.12-69.12-69.12c-38.174 0-69.12 30.946-69.12 69.12v0c0 0.089-0.001 0.195-0.001 0.3 0 37.938 30.755 68.693 68.693 68.693 0.15 0 0.3 0 0.45-0.001h-0.023zM381.653 456.704c-164.328-3.484-296.208-137.519-296.208-302.358 0-1.103 0.006-2.204 0.018-3.303l-0.001 0.168c0-7.168 0-14.677 0.299-21.333 1.071-15.719 13.802-28.139 29.556-28.713l0.055-0.002h552.32c15.606 0.542 28.225 12.629 29.602 27.956l0.009 0.119c0.427 7.893 0.299 14.293 0.299 21.333 0.002 0.396 0.003 0.864 0.003 1.333 0 108.973-56.132 204.836-141.061 260.251l-1.193 0.73c-3.764 1.839-8.19 2.914-12.867 2.914-16.495 0-29.867-13.372-29.867-29.867 0-9.426 4.366-17.832 11.187-23.306l0.059-0.045c66.642-44.034 110.661-117.643 113.271-201.685l0.009-0.384h-491.605c2.671 129.483 106.674 233.814 235.774 237.007l0.3 0.006h19.584c21.763-0.011 42.794-3.127 62.68-8.929l-1.582 0.395c2.271-0.624 4.88-0.983 7.571-0.983 16.377 0 29.653 13.276 29.653 29.653 0 13.357-8.831 24.651-20.972 28.362l-0.21 0.055c-23.106 6.816-49.656 10.756-77.12 10.795h-0.021zM717.397 446.848c-0.105 0-0.229 0-0.353 0-24.389 0-47.83-4.061-69.683-11.544l1.513 0.45c-10.592-4.745-17.838-15.195-17.838-27.337 0-16.495 13.372-29.867 29.867-29.867 2.3 0 4.539 0.26 6.69 0.752l-0.201-0.039c14.892 5.363 32.076 8.485 49.984 8.533h19.777c2.426 0.141 5.263 0.221 8.119 0.221 78.648 0 143.096-60.799 148.907-137.961l0.030-0.5h-147.413c-16.365 0-29.632-13.267-29.632-29.632s13.267-29.632 29.632-29.632v0h177.451c15.606 0.542 28.225 12.629 29.602 27.956l0.009 0.119c0.427 7.936 0.299 14.677 0.299 21.333-2.061 115.032-95.795 207.492-211.126 207.492-2.157 0-4.306-0.032-6.447-0.097l0.314 0.007z" />
<glyph unicode="&#xe915;" glyph-name="icon-log-sheet" d="M609.877 684.928l-246.997-215.168-83.712 89.856c-4.894 4.969-11.696 8.048-19.217 8.048-6.844 0-13.092-2.55-17.847-6.751l0.029 0.025c-5.144-4.797-8.351-11.613-8.351-19.178 0-6.908 2.674-13.191 7.042-17.872l-0.014 0.015 100.736-108.416c4.794-5.125 11.598-8.318 19.148-8.318 6.599 0 12.628 2.44 17.235 6.467l-0.031-0.026 266.24 231.808c5.523 4.828 8.992 11.887 8.992 19.755 0 6.594-2.437 12.62-6.458 17.225l0.026-0.031c-4.939 5.316-11.97 8.632-19.774 8.632-6.488 0-12.442-2.292-17.094-6.11l0.047 0.038zM410.539 155.605h-190.891c-21.693 0.024-39.272 17.603-39.296 39.294v588.119c0.024 21.693 17.603 39.272 39.294 39.296h447.661c21.693-0.024 39.272-17.603 39.296-39.294v-287.661c0-14.468 11.729-26.197 26.197-26.197s26.197 11.729 26.197 26.197v0 287.659c-0.073 50.587-41.062 91.575-91.641 91.648h-447.708c-50.495-0.194-91.362-41.136-91.435-91.641v-588.167c0.073-50.587 41.062-91.575 91.641-91.648h190.898c14.468 0 26.197 11.729 26.197 26.197s-11.729 26.197-26.197 26.197v0zM796.032 147.072c-1.034 7.016-4.747 13.012-10.047 17.019l-0.065 0.047-93.355 70.741v118.144c0 14.468-11.729 26.197-26.197 26.197s-26.197-11.729-26.197-26.197v0-130.944c0.010-8.487 4.048-16.029 10.305-20.818l0.063-0.046 103.723-78.592c4.322-3.328 9.812-5.333 15.771-5.333 0.021 0 0.041 0 0.062 0h-0.003c0.015 0 0.033 0 0.051 0 14.445 0 26.155 11.71 26.155 26.155 0 1.31-0.096 2.597-0.282 3.855l0.017-0.142zM666.368 451.243c-126.563 0-229.163-102.6-229.163-229.163s102.6-229.163 229.163-229.163c126.563 0 229.163 102.6 229.163 229.163v0c-0.146 126.519-102.682 229.041-229.193 229.163h-0.012zM666.368 45.312c-97.626 0-176.768 79.142-176.768 176.768s79.142 176.768 176.768 176.768c97.626 0 176.768-79.142 176.768-176.768v0c-0.121-97.592-79.215-176.671-176.801-176.768h-0.009z" />
<glyph unicode="&#xe916;" glyph-name="icon-assets" d="M512 15.445c-47.748 0.024-86.455 38.701-86.528 86.436v28.892c-29.209 8.013-54.725 18.853-78.358 32.579l1.558-0.835-20.437-20.437c-15.476-14.693-36.446-23.73-59.527-23.73-47.788 0-86.528 38.74-86.528 86.528 0 23.081 9.037 44.051 23.765 59.565l-0.036-0.038 20.437 20.437c-12.903 22.074-23.757 47.59-31.243 74.508l-0.544 2.292h-28.885c-46.954 1.076-84.607 39.394-84.607 86.507s37.652 85.431 84.507 86.505l0.1 0.002h28.885c8.028 29.21 18.882 54.726 32.622 78.356l-0.835-1.556-20.437 20.437c-14.693 15.476-23.73 36.446-23.73 59.527 0 47.788 38.74 86.528 86.528 86.528 23.081 0 44.051-9.037 59.565-23.765l-0.038 0.036 20.437-20.437c22.074 12.891 47.591 23.73 74.509 31.201l2.291 0.543v28.885c1.076 46.954 39.394 84.607 86.507 84.607s85.431-37.652 86.505-84.507l0.002-0.1v-28.885c29.209-8.014 54.726-18.854 78.359-32.58l-1.559 0.836 20.437 20.437c15.476 14.693 36.446 23.73 59.527 23.73 47.788 0 86.528-38.74 86.528-86.528 0-23.081-9.037-44.051-23.765-59.565l0.036 0.038-20.437-20.437c12.891-22.074 23.73-47.591 31.201-74.509l0.543-2.291h28.885c46.954-1.076 84.607-39.394 84.607-86.507s-37.652-85.431-84.507-86.505l-0.1-0.002h-28.885c-8.014-29.209-18.854-54.726-32.58-78.359l0.836 1.559 20.437-20.437c14.693-15.476 23.73-36.446 23.73-59.527 0-47.788-38.74-86.528-86.528-86.528-23.081 0-44.051 9.037-59.565 23.765l0.038-0.036-20.437 20.437c-22.074-12.89-47.591-23.73-74.509-31.201l-2.291-0.543v-28.885c-0.073-47.727-38.755-86.394-86.481-86.443h-0.005zM343.723 206.336l11.691-7.381c26.195-16.786 56.675-29.831 89.251-37.416l1.97-0.386 13.483-3.072v-56.192c0.829-28.030 23.75-50.437 51.904-50.437s51.075 22.407 51.902 50.361l0.002 0.076v56.192l13.483 3.072c34.546 7.972 65.027 21.017 92.394 38.503l-1.173-0.701 11.691 7.381 39.765-39.765c9.246-8.625 21.695-13.921 35.382-13.921 28.678 0 51.925 23.248 51.925 51.925 0 13.687-5.295 26.136-13.949 35.413l0.028-0.031-39.765 39.765 7.381 11.691c16.785 26.195 29.829 56.675 37.416 89.251l0.387 1.971 3.072 13.483h56.192c28.030 0.829 50.437 23.75 50.437 51.904s-22.407 51.075-50.361 51.902l-0.076 0.002h-56.192l-3.072 13.483c-7.973 34.546-21.017 65.026-38.503 92.394l0.701-1.173-7.381 11.691 39.765 39.765c8.625 9.246 13.921 21.695 13.921 35.382 0 28.678-23.248 51.925-51.925 51.925-13.687 0-26.136-5.295-35.413-13.949l0.031 0.028-39.765-39.765-11.691 7.381c-26.195 16.785-56.675 29.83-89.251 37.416l-1.971 0.387-13.483 3.072v56.192c-0.829 28.030-23.75 50.437-51.904 50.437s-51.075-22.407-51.902-50.361l-0.002-0.076v-56.192l-13.483-3.072c-34.546-7.973-65.026-21.017-92.394-38.503l1.173 0.701-11.691-7.381-39.765 39.765c-9.246 8.625-21.695 13.921-35.382 13.921-28.678 0-51.925-23.248-51.925-51.925 0-13.687 5.295-26.136 13.949-35.413l-0.028 0.031 39.765-39.765-7.381-11.691c-16.786-26.195-29.831-56.675-37.416-89.251l-0.386-1.97-3.072-13.483h-56.192c-28.030-0.829-50.437-23.75-50.437-51.904s22.407-51.075 50.361-51.902l0.076-0.002h56.192l3.072-13.483c7.973-34.546 21.017-65.026 38.503-92.394l-0.701 1.173 7.381-11.691-39.765-39.765c-8.625-9.246-13.921-21.695-13.921-35.382 0-28.678 23.248-51.925 51.925-51.925 13.687 0 26.136 5.295 35.413 13.949l-0.031-0.028zM512 274.987c-95.553 0-173.013 77.461-173.013 173.013s77.461 173.013 173.013 173.013c95.553 0 173.013-77.461 173.013-173.013v0c-0.121-95.504-77.51-172.892-173.002-173.013h-0.012zM512 586.453c-76.442 0-138.411-61.969-138.411-138.411s61.969-138.411 138.411-138.411c76.442 0 138.411 61.969 138.411 138.411v0c-0.121 76.385-62.023 138.271-138.401 138.368h-0.009zM512 361.515c-47.788 0-86.528 38.74-86.528 86.528s38.74 86.528 86.528 86.528c47.788 0 86.528-38.74 86.528-86.528v0c-0.049-47.769-38.759-86.479-86.523-86.528h-0.005zM512 499.925c-28.678 0-51.925-23.248-51.925-51.925s23.248-51.925 51.925-51.925c28.678 0 51.925 23.248 51.925 51.925v0c-0.024 28.668-23.258 51.901-51.923 51.925h-0.002z" />
<glyph unicode="&#xe917;" glyph-name="icon-menu" horiz-adv-x="1707" d="M0 960h1706.667v-113.778h-1706.667v113.778zM0 504.889h1706.667v-113.778h-1706.667v113.778zM0 49.778h1706.667v-113.778h-1706.667v113.778z" />
<glyph unicode="&#xe918;" glyph-name="icon-calendar-solid" d="M853.333 846.222h56.889c0 0 0 0 0.001 0 62.718 0 113.583-50.746 113.777-113.418v-683.368c0 0 0 0 0-0.001 0-62.649-50.787-113.436-113.436-113.436-0.12 0-0.24 0-0.36 0.001h-796.425c0 0 0 0-0.001 0-62.718 0-113.583 50.746-113.777 113.418v683.368c0 0 0 0 0 0.001 0 62.649 50.787 113.436 113.436 113.436 0.12 0 0.24 0 0.36-0.001h56.87v85.902c0.319 15.463 12.929 27.876 28.439 27.876 0.002 0 0.004 0 0.006 0v0c0.135 0.002 0.295 0.004 0.455 0.004 15.419 0 27.927-12.469 27.989-27.873v-85.908h568.889v85.902c0.319 15.463 12.929 27.876 28.439 27.876 0.002 0 0.004 0 0.006 0v0c0.135 0.002 0.295 0.004 0.455 0.004 15.419 0 27.927-12.469 27.989-27.873v-0.006zM853.333 789.333v-29.013c-0.319-15.463-12.929-27.876-28.439-27.876-0.002 0-0.004 0-0.006 0v0c-0.135-0.002-0.295-0.004-0.455-0.004-15.419 0-27.927 12.469-27.989 27.873v29.019h-568.889v-29.013c-0.319-15.463-12.929-27.876-28.439-27.876-0.002 0-0.004 0-0.006 0v0c-0.135-0.002-0.295-0.004-0.455-0.004-15.419 0-27.927 12.469-27.989 27.873v29.019h-56.889c-0.101 0.001-0.221 0.001-0.341 0.001-31.23 0-56.548-25.317-56.548-56.548 0 0 0-0.001 0-0.001v0-683.349c0.194-31.272 25.589-56.548 56.888-56.548 0 0 0.001 0 0.001 0h796.444c0.101-0.001 0.221-0.001 0.341-0.001 31.23 0 56.548 25.317 56.548 56.548 0 0 0 0.001 0 0.001v0 683.349c-0.194 31.272-25.589 56.548-56.888 56.548 0 0-0.001 0-0.001 0v0zM56.889 675.556h910.222v-56.889h-910.222zM739.556 476.444c0 15.709 12.735 28.444 28.444 28.444v0h56.889c15.709 0 28.444-12.735 28.444-28.444v0-56.889c0-15.709-12.735-28.444-28.444-28.444v0h-56.889c-15.709 0-28.444 12.735-28.444 28.444v0zM455.111 476.444c0 15.709 12.735 28.444 28.444 28.444v0h56.889c15.709 0 28.444-12.735 28.444-28.444v0-56.889c0-15.709-12.735-28.444-28.444-28.444v0h-56.889c-15.709 0-28.444 12.735-28.444 28.444v0zM170.667 476.444c0 15.709 12.735 28.444 28.444 28.444v0h56.889c15.709 0 28.444-12.735 28.444-28.444v0-56.889c0-15.709-12.735-28.444-28.444-28.444v0h-56.889c-15.709 0-28.444 12.735-28.444 28.444v0zM170.667 192c0 15.709 12.735 28.444 28.444 28.444v0h56.889c15.709 0 28.444-12.735 28.444-28.444v0-56.889c0-15.709-12.735-28.444-28.444-28.444v0h-56.889c-15.709 0-28.444 12.735-28.444 28.444v0zM455.111 192c0 15.709 12.735 28.444 28.444 28.444v0h56.889c15.709 0 28.444-12.735 28.444-28.444v0-56.889c0-15.709-12.735-28.444-28.444-28.444v0h-56.889c-15.709 0-28.444 12.735-28.444 28.444v0zM739.556 192c0 15.709 12.735 28.444 28.444 28.444v0h56.889c15.709 0 28.444-12.735 28.444-28.444v0-56.889c0-15.709-12.735-28.444-28.444-28.444v0h-56.889c-15.709 0-28.444 12.735-28.444 28.444v0z" />
<glyph unicode="&#xe919;" glyph-name="icon-clock" d="M512 960c-282.77 0-512-229.23-512-512s229.23-512 512-512c282.77 0 512 229.23 512 512v0c-0.265 282.663-229.337 511.735-511.975 512h-0.025zM512 896c247.424 0 448-200.576 448-448s-200.576-448-448-448c-247.424 0-448 200.576-448 448v0c0 0.138 0 0.302 0 0.466 0 247.167 200.368 447.535 447.535 447.535 0.164 0 0.327 0 0.491 0h-0.025zM512 800.023c0 0 0 0 0 0-17.66 0-31.977-14.316-31.977-31.977 0-0.016 0-0.033 0-0.049v0.003-320c0-0.013 0-0.028 0-0.043 0-8.765 3.558-16.7 9.309-22.438l0.001-0.001 203.497-204.009c5.825-5.825 13.872-9.428 22.761-9.428 17.777 0 32.189 14.411 32.189 32.189 0 8.889-3.603 16.936-9.428 22.761v0l-194.513 194.001v307.2c-0.131 17.511-14.318 31.666-31.83 31.744h-0.008z" />
<glyph unicode="&#xe91a;" glyph-name="icon-plus-light" d="M512 960c-282.77 0-512-229.23-512-512s229.23-512 512-512c282.77 0 512 229.23 512 512v0c-0.34 282.633-229.366 511.66-511.967 512h-0.033zM512-7.125c-251.359 0-455.125 203.767-455.125 455.125s203.767 455.125 455.125 455.125c251.359 0 455.125-203.767 455.125-455.125v0c-0.291-251.241-203.883-454.834-455.097-455.125h-0.028zM696.875 478.805h-369.792c-17.013 0-30.805-13.792-30.805-30.805s13.792-30.805 30.805-30.805v0h369.792c17.013 0 30.805 13.792 30.805 30.805s-13.792 30.805-30.805 30.805v0zM481.195 632.875v-369.792c0-17.013 13.792-30.805 30.805-30.805s30.805 13.792 30.805 30.805v0 369.792c0 17.013-13.792 30.805-30.805 30.805s-30.805-13.792-30.805-30.805v0z" />
<glyph unicode="&#xe91b;" glyph-name="icon-settings" d="M631.467 362.667h-18.773c-7.061-0.013-13.378 4.393-15.804 11.025-2.082 5.461-4.318 10.803-6.724 16.094-2.991 6.434-1.626 14.052 3.413 19.046l13.38 13.397c19.863 20.038 19.827 52.354-0.085 72.346l-48.23 48.23c-20.017 19.9-52.346 19.9-72.363 0l-13.38-13.363c-5.005-5.020-12.61-6.383-19.046-3.413-5.291 2.406-10.633 4.642-16.111 6.827-6.667 2.409-11.102 8.749-11.076 15.838v18.773c0 28.277-22.923 51.2-51.2 51.2h-68.267c-28.277 0-51.2-22.923-51.2-51.2v-18.773c0.013-7.061-4.393-13.378-11.025-15.804-5.461-2.082-10.803-4.318-16.094-6.724-6.436-2.976-14.044-1.613-19.046 3.413l-13.397 13.38c-20.015 19.887-52.331 19.887-72.346 0l-48.23-48.384c-19.9-20.017-19.9-52.346 0-72.363l13.363-13.38c5.039-4.994 6.404-12.612 3.413-19.046-2.406-5.291-4.642-10.633-6.741-16.111-2.443-6.671-8.819-11.081-15.923-11.008h-18.773c-28.277 0-51.2-22.923-51.2-51.2v-68.267c0-28.277 22.923-51.2 51.2-51.2h18.773c7.061 0.013 13.378-4.393 15.804-11.025 2.082-5.461 4.318-10.803 6.724-16.094 2.991-6.434 1.626-14.052-3.413-19.046l-13.38-13.397c-19.887-20.015-19.887-52.331 0-72.346l48.23-48.23c20.017-19.9 52.346-19.9 72.363 0l13.38 13.363c5.005 5.020 12.61 6.383 19.046 3.413 5.291-2.406 10.633-4.642 16.111-6.827 6.701-2.381 11.174-8.727 11.162-15.838v-18.773c0-28.277 22.923-51.2 51.2-51.2h68.267c28.277 0 51.2 22.923 51.2 51.2v18.773c-0.013 7.061 4.393 13.378 11.025 15.804 5.461 2.082 10.803 4.318 16.094 6.724 6.436 2.976 14.044 1.613 19.046-3.413l13.397-13.38c20.043-19.855 52.35-19.817 72.346 0.085l48.23 48.23c19.9 20.017 19.9 52.346 0 72.363l-13.363 13.38c-5.039 4.994-6.404 12.612-3.413 19.046 2.406 5.291 4.642 10.633 6.827 16.111 2.409 6.667 8.749 11.102 15.838 11.076h18.773c28.277 0 51.2 22.923 51.2 51.2v68.267c0 28.277-22.923 51.2-51.2 51.2zM648.533 243.2c0-9.425-7.642-17.067-17.067-17.067h-18.773c-21.216-0.079-40.203-13.193-47.787-33.007-1.809-4.779-3.765-9.483-5.871-14.114-8.774-19.371-4.704-42.146 10.24-57.276l13.346-13.363c6.669-6.66 6.675-17.468 0.013-24.137-0.004-0.004-0.009-0.009-0.013-0.013l-48.23-48.23c-6.665-6.662-17.468-6.662-24.132 0l-13.38 13.363c-15.123 14.957-37.907 19.029-57.276 10.24-4.625-2.099-9.335-4.062-14.080-5.871-19.799-7.582-32.905-26.551-32.99-47.753v-18.773c0-9.425-7.642-17.067-17.067-17.067h-68.267c-9.425 0-17.067 7.642-17.067 17.067v18.773c-0.079 21.216-13.193 40.203-33.007 47.787-4.779 1.809-9.483 3.765-14.114 5.871-19.371 8.77-42.144 4.698-57.276-10.24l-13.363-13.346c-6.66-6.669-17.468-6.675-24.137-0.013-0.004 0.004-0.009 0.009-0.013 0.013l-48.23 48.179c-6.662 6.665-6.662 17.468 0 24.132l13.363 13.38c14.944 15.13 19.014 37.905 10.24 57.276-2.099 4.625-4.062 9.335-5.871 14.080-7.565 19.821-26.539 32.947-47.753 33.041h-18.773c-9.425 0-17.067 7.642-17.067 17.067v68.267c0 9.425 7.642 17.067 17.067 17.067h18.773c21.216 0.079 40.203 13.193 47.787 33.007 1.809 4.779 3.765 9.483 5.871 14.114 8.774 19.371 4.702 42.146-10.24 57.276l-13.414 13.363c-6.669 6.66-6.675 17.468-0.013 24.137 0.004 0.004 0.009 0.009 0.013 0.013l48.23 48.23c6.665 6.662 17.468 6.662 24.132 0l13.38-13.363c15.123-14.957 37.907-19.029 57.276-10.24 4.625 2.099 9.335 4.062 14.080 5.871 19.827 7.558 32.962 26.534 33.058 47.753v18.773c0 9.425 7.642 17.067 17.067 17.067h68.267c9.425 0 17.067-7.642 17.067-17.067v-18.773c0.079-21.216 13.193-40.203 33.007-47.787 4.779-1.809 9.483-3.765 14.114-5.871 19.369-8.789 42.153-4.717 57.276 10.24l13.363 13.346c6.69 6.618 17.459 6.618 24.149 0l48.23-48.23c6.662-6.665 6.662-17.468 0-24.132l-13.363-13.38c-14.942-15.13-19.014-37.905-10.24-57.276 2.099-4.625 4.062-9.335 5.871-14.080 7.582-19.799 26.551-32.905 47.753-32.99h18.773c9.425 0 17.067-7.642 17.067-17.067v-68.267zM494.592 284.16c-0.171 4.096-0.461 8.175-0.956 12.237-0.546 4.369-1.195 8.704-2.099 12.954-0.597 2.782-1.382 5.53-2.133 8.294-0.956 3.516-2.031 6.98-3.226 10.394-0.836 2.372-1.707 4.727-2.594 7.066-2.197 5.466-4.71 10.801-7.526 15.974-0.222 0.393-0.358 0.819-0.58 1.212-4.439 7.902-9.581 15.392-15.36 22.374-0.495 0.614-1.058 1.195-1.57 1.792-2.355 2.782-4.779 5.478-7.322 8.055-1.331 1.382-2.731 2.679-4.13 4.011-1.707 1.587-3.413 3.157-5.12 4.659-2.071 1.798-4.181 3.539-6.332 5.222l-2.799 2.082c-26.409 19.78-58.517 30.464-91.511 30.447-1.707 0-3.413-0.256-5.12-0.324-3.635-0.102-7.287-0.307-10.957-0.683-1.929-0.205-3.874-0.427-5.803-0.7-5.564-0.732-11.085-1.764-16.538-3.089-82.178-21.235-131.582-105.071-110.347-187.249 13.995-54.153 56.303-96.427 110.466-110.377 0.273 0 0.563-0.085 0.853-0.154 5.894-1.47 11.866-2.611 17.886-3.413 3.977-0.495 7.953-0.597 11.947-0.785 2.662-0.137 5.12-0.529 7.902-0.529 4.864 0 9.916 0.324 15.070 0.836 0.546 0 1.092 0.154 1.707 0.222 4.147 0.461 8.346 1.075 12.629 1.929 1.707 0.324 3.294 0.751 4.932 1.126 3.004 0.7 5.99 1.434 9.062 2.338 2.389 0.717 4.71 1.553 7.049 2.372s4.762 1.707 7.185 2.628c2.423 0.922 4.454 1.98 6.656 3.004 2.867 1.314 5.717 2.611 8.533 4.147h0.102c15.927 8.527 30.639 19.151 43.742 31.59 3.539 3.302 6.618 7.070 9.148 11.196 13.321 21.355 22.071 45.237 25.702 70.144 0.478 3.294 0.905 6.588 1.161 9.95 0.239 3.089 0.41 6.161 0.478 9.233 0 0.973 0.137 1.894 0.137 2.867 0.017 2.406-0.222 4.625-0.324 6.946zM460.578 272.981c0-1.417-0.119-2.833-0.205-4.233-0.307-4.13-0.836-8.26-1.536-12.407-6.379-35.484-28.41-66.204-59.972-83.627-2.116-1.109-4.198-2.15-6.281-3.106l-1.417-0.683c-9.916-4.501-20.382-7.669-31.13-9.421-0.751-0.119-1.519-0.256-2.287-0.358-2.133-0.307-4.233-0.563-6.315-0.751-2.748-0.239-5.513-0.375-8.329-0.427-1.195 0-2.372 0-3.567 0-4.038 0.047-8.070 0.297-12.083 0.751l-2.048 0.239c-4.693 0.614-9.348 1.491-13.943 2.628-63.919 16.361-102.473 81.44-86.114 145.359 10.81 42.236 43.77 75.23 85.995 86.082v0.017c9.805 2.473 19.874 3.735 29.986 3.755 4.879-0.028 9.754-0.358 14.592-0.99 1.297-0.154 2.577-0.393 3.857-0.58 3.686-0.58 7.339-1.314 10.94-2.236 1.178-0.307 2.355-0.58 3.516-0.905 9.075-2.62 17.811-6.298 26.027-10.957 1.314-0.768 2.594-1.57 3.891-2.372 2.697-1.707 5.308-3.413 7.885-5.359 1.382-1.007 2.782-1.997 4.113-3.072 3.349-2.675 6.556-5.523 9.609-8.533 1.212-1.229 2.321-2.577 3.499-3.857 1.963-2.133 3.874-4.318 5.7-6.622 1.263-1.587 2.475-3.226 3.669-4.881 1.707-2.458 3.413-5.018 4.949-7.612 0.853-1.417 1.707-2.799 2.577-4.25 2.202-4.051 4.162-8.228 5.871-12.51 0.683-1.707 1.263-3.413 1.877-5.12 1.109-3.14 2.065-6.315 2.901-9.523 0.427-1.707 0.905-3.226 1.263-4.881 0.996-4.612 1.719-9.28 2.167-13.978 0.102-1.246 0.102-2.509 0.188-3.755 0.239-3.925 0.307-7.868 0.154-11.827zM972.8 601.6h-53.675c-7.157-0.073-13.559 4.435-15.906 11.196-5.293 15.853-11.697 31.315-19.166 46.268-3.17 6.458-1.85 14.221 3.277 19.268l38.059 38.11c19.977 19.991 19.977 52.388 0 72.38l-72.567 72.448c-19.991 19.977-52.388 19.977-72.38 0l-38.042-38.025c-5.041-5.124-12.794-6.451-19.251-3.294-14.955 7.507-30.421 13.946-46.285 19.268-6.788 2.323-11.328 8.732-11.264 15.906v53.675c0 28.277-22.923 51.2-51.2 51.2h-102.4c-28.277 0-51.2-22.923-51.2-51.2v-53.675c0.073-7.157-4.433-13.559-11.196-15.906-15.855-5.321-31.317-11.755-46.268-19.251-6.458-3.181-14.225-1.86-19.268 3.277l-38.11 38.059c-20.015 19.919-52.365 19.919-72.38 0l-72.431-72.431c-19.987-19.994-19.987-52.403 0-72.397l55.962-56.064c6.769-6.558 17.574-6.387 24.132 0.384 6.398 6.605 6.413 17.092 0.034 23.714l-55.996 56.047c-6.662 6.665-6.662 17.468 0 24.132l72.431 72.431c6.665 6.662 17.468 6.662 24.132 0l38.127-38.059c15.426-15.518 39.063-19.396 58.641-9.626 13.519 6.769 27.497 12.58 41.83 17.391 20.689 7.004 34.581 26.455 34.492 48.299v53.675c0 9.425 7.642 17.067 17.067 17.067h102.4c9.425 0 17.067-7.642 17.067-17.067v-53.675c-0.087-21.839 13.805-41.284 34.492-48.282 14.34-4.813 28.324-10.628 41.847-17.408 19.582-9.719 43.187-5.837 58.624 9.643l38.127 38.042c6.665 6.662 17.468 6.662 24.132 0l72.431-72.448c6.652-6.662 6.652-17.453 0-24.115l-38.059-38.127c-15.503-15.435-19.379-39.061-9.626-58.641 6.769-13.519 12.58-27.497 17.391-41.83 6.999-20.693 26.453-34.586 48.299-34.492h53.675c9.425 0 17.067-7.642 17.067-17.067v-102.4c0-9.425-7.642-17.067-17.067-17.067h-53.675c-21.839 0.087-41.284-13.805-48.282-34.492-4.811-14.34-10.628-28.324-17.408-41.847-9.737-19.58-5.852-43.194 9.643-58.624l38.059-38.127c6.662-6.665 6.662-17.468 0-24.132l-72.465-72.431c-6.662-6.652-17.453-6.652-24.115 0l-56.081 55.962c-6.558 6.771-17.363 6.942-24.132 0.384-6.771-6.558-6.942-17.363-0.384-24.132 0.137-0.141 0.277-0.282 0.418-0.418l56.064-55.962c19.991-19.977 52.388-19.977 72.38 0l72.431 72.414c19.987 19.994 19.987 52.403 0 72.397l-38.007 38.076c-5.12 5.043-6.445 12.794-3.294 19.251 7.507 14.955 13.946 30.421 19.268 46.285 2.323 6.788 8.732 11.328 15.906 11.264h53.675c28.277 0 51.2 22.923 51.2 51.2v102.4c0 28.277-22.923 51.2-51.2 51.2zM720.077 656.077c-86.694 86.513-227.059 86.513-313.754 0-6.547-6.78-6.359-17.585 0.42-24.132 6.613-6.387 17.099-6.387 23.712 0 72.821 73.805 191.684 74.601 265.489 1.779s74.601-191.684 1.779-265.489c-0.589-0.597-1.182-1.19-1.779-1.779-6.78-6.549-6.967-17.353-0.418-24.132s17.353-6.967 24.132-0.418c0.141 0.137 0.282 0.277 0.418 0.418 86.513 86.694 86.513 227.059 0 313.754z" />
<glyph unicode="&#xe91c;" glyph-name="icon-gas-station" d="M887.467 181.76c-22.586 0-40.96-18.374-40.96-40.96s18.374-40.96 40.96-40.96 40.96 18.374 40.96 40.96-18.374 40.96-40.96 40.96zM887.467 127.147c-7.533 0-13.653 6.12-13.653 13.653s6.12 13.653 13.653 13.653 13.653-6.12 13.653-13.653-6.12-13.653-13.653-13.653zM159.84 628.32c-5.332 5.332-13.974 5.332-19.306 0l-10.827-10.827-10.827 10.827c-5.332 5.332-13.974 5.332-19.306 0s-5.332-13.974 0-19.306l10.827-10.827-10.827-10.827c-5.332-5.332-5.332-13.974 0-19.306 2.666-2.666 6.161-4 9.653-4s6.987 1.335 9.653 4l10.827 10.827 10.827-10.827c2.666-2.666 6.161-4 9.653-4s6.987 1.335 9.653 4c5.332 5.332 5.332 13.974 0 19.306l-10.827 10.827 10.827 10.827c5.335 5.332 5.335 13.974 0 19.306zM198.915 434.347c0-8.061-6.535-14.595-14.595-14.595s-14.595 6.535-14.595 14.595c0 8.061 6.535 14.595 14.595 14.595s14.595-6.535 14.595-14.595zM768.986 837.12h-473.013c-35.212 0-63.867-28.655-63.867-63.867v-650.506c0-35.212 28.655-63.867 63.867-63.867h473.013c35.212 0 63.867 28.655 63.867 63.867v650.506c0 35.212-28.655 63.867-63.867 63.867zM805.547 122.747c0-20.159-16.401-36.56-36.56-36.56h-473.013c-20.159 0-36.56 16.401-36.56 36.56v650.506c0 20.159 16.401 36.56 36.56 36.56h473.013c20.159 0 36.56-16.401 36.56-36.56zM764.587 782.507h-464.213c-7.547 0-13.653-6.106-13.653-13.653v-518.827c0-7.547 6.106-13.653 13.653-13.653h464.213c7.547 0 13.653 6.106 13.653 13.653v518.827c0 7.547-6.106 13.653-13.653 13.653zM750.933 755.2v-409.6h-136.533v318.532c0 3.13-0.372 6.175-0.925 9.148h8.219c18.562 0 33.666-15.107 33.666-33.666v-61.321h-13.653c-7.547 0-13.653-6.106-13.653-13.653v-123.467c0-7.547 6.106-13.653 13.653-13.653h13.653v-27.307c0-3.625 1.44-7.093 4-9.653l27.307-27.307c2.666-2.666 6.161-4 9.653-4s6.987 1.335 9.653 4c5.332 5.332 5.332 13.974 0 19.306l-23.306 23.306v21.654h13.653c7.547 0 13.653 6.106 13.653 13.653v123.467c0 7.547-6.106 13.653-13.653 13.653h-13.653v61.321c0 33.625-27.348 60.972-60.972 60.972h-20.948c-0.655 0-1.219-0.283-1.85-0.372-9.004 8.643-21.166 14.025-34.604 14.025h-159.198c-27.628 0-50.108-22.48-50.108-50.108v-318.532h-40.96v409.6zM587.093 345.6h-204.8v318.532c0 12.575 10.226 22.801 22.801 22.801h159.201c12.575 0 22.801-10.226 22.801-22.801v-318.532zM655.36 454.827v96.16h27.307v-96.16zM314.027 263.68v54.613h436.907v-54.613zM559.787 673.28h-150.187c-7.547 0-13.653-6.106-13.653-13.653v-122.88c0-7.547 6.106-13.653 13.653-13.653h150.187c7.547 0 13.653 6.106 13.653 13.653v122.88c0 7.547-6.106 13.653-13.653 13.653zM546.133 550.4h-122.88v95.573h122.88z" />
<glyph unicode="&#xe91d;" glyph-name="icon-shift-report" d="M22.71 26.75c0-50.097 43.371-90.75 95.839-90.75h562.597c47.016 0 86.161 32.685 93.782 75.54 45.177 7.040 79.782 44.5 79.782 89.597v408.798h45.726c3.185-0.065 6.315 0.806 9.008 2.492l83.645 54.331c4.685 3.032 7.508 8.234 7.508 13.815 0 5.573-2.823 10.774-7.508 13.806l-83.645 54.879c-2.637 1.879-5.766 2.968-9.008 3.129h-45.726v90.097c-0.411 5.54-3.065 10.669-7.339 14.218l-190.403 193.976c-1.065 1.524-2.371 2.863-3.879 3.952l-0.516 0.484c-3.113 3.145-7.363 4.911-11.782 4.887h-443.839c-47.016 0-86.5-32.694-94.121-75.54-45.177-7.040-80.121-44.5-80.121-89.597zM303.484 542.968v76.387h580.129v-76.387zM916.645 556.54v47.952l36.847-23.976zM660.645 900.508l136.96-140.766h-114.887c-5.734-0.129-11.29 2.024-15.427 5.992-4.145 3.968-6.532 9.427-6.645 15.161zM196.952 926.968h430.661v-146.073c0.25-30.185 24.919-54.444 55.105-54.185h138.96v-74.323h-533.887c-9.46-0.371-17.024-7.984-17.339-17.444v-2.113l-49.298 0.976c-9.218-0.242-16.548-7.806-16.516-17.024l0.516-71.887c0.073-9.073 7.452-16.387 16.516-16.379h48.782v-2.427c0-9.121 8.226-16.153 17.339-16.153h34.895l-0.226-24.774c-0.145-9.444 3.395-18.573 9.863-25.452 5.565-5.935 13.266-9.403 21.395-9.645h200.54c9.121 0 16.516 7.395 16.516 16.516s-7.395 16.516-16.516 16.516h-198.702c-0.032 2.065-0.056 1.032-0.056 1.282l0.234 25.556h465.943v-408.798c0-31.879-27.871-57.782-62.121-57.782h-562.605c-34.25 0-62.758 25.903-62.758 57.782v765.492c0 0.839 0.54 1.694 0.54 2.565 0.048 0.71 0.048 1.419 0 2.137 1.21 30.895 28.742 55.637 62.218 55.637zM270.452 561.548h-32.379l-0.702 38.637 33.081-0.387zM55.742 794.863c0 26.484 20.645 48.847 45.419 55.669v-749.395c0-50.089 43.331-90.815 95.79-90.815h543.726c-7.637-24.774-31.419-41.29-59.532-41.29h-562.597c-34.25 0-62.806 25.839-62.806 57.718zM221.855 373.678h271.548c9.121 0 16.516 7.395 16.516 16.516s-7.395 16.516-16.516 16.516h-271.548c-9.129 0-16.516-7.395-16.516-16.516s7.387-16.516 16.516-16.516zM221.855 293.161h472.589c9.129 0 16.516 7.395 16.516 16.516s-7.387 16.516-16.516 16.516h-472.589c-9.129 0-16.516-7.395-16.516-16.516s7.387-16.516 16.516-16.516zM221.855 212.645h472.589c9.129 0 16.516 7.395 16.516 16.516s-7.387 16.516-16.516 16.516h-472.589c-9.129 0-16.516-7.395-16.516-16.516s7.387-16.516 16.516-16.516zM221.855 132.129h472.589c9.129 0 16.516 7.395 16.516 16.516s-7.387 16.516-16.516 16.516h-472.589c-9.129 0-16.516-7.395-16.516-16.516s7.387-16.516 16.516-16.516z" />
</font>
</defs>
</svg>
